<svg width="116" height="117" viewBox="0 0 116 117" fill="none" xmlns="http://www.w3.org/2000/svg">
<g filter="url(#filter0_d)">
<g clip-path="url(#clip0)">
<rect width="88.4441" height="89.2145" rx="20" transform="matrix(0.94415 -0.329516 0.35487 0.934916 0.397781 29.6005)" fill="#4341A4"/>
<path d="M69.3779 59.5087C69.417 63.179 68.8083 65.9 67.5518 67.6715C66.2952 69.4431 64.311 70.3152 61.5992 70.288C58.9218 70.2612 56.9303 69.3717 55.6248 67.6196C54.3192 65.8563 53.6249 63.2408 53.5421 59.7733L53.4975 55.5891C53.4589 51.9639 54.068 49.2769 55.3248 47.5279C56.5815 45.7789 58.5716 44.9181 61.295 44.9454C63.9953 44.9725 65.9924 45.8451 67.286 47.5632C68.5796 49.27 69.2624 51.8966 69.3346 55.4431L69.3779 59.5087ZM66.1435 55.1908C66.1153 52.5369 65.7155 50.6019 64.9443 49.3859C64.1729 48.1587 62.9656 47.5368 61.3224 47.5203C59.6906 47.5039 58.5077 48.0962 57.7737 49.2971C57.0396 50.498 56.6745 52.3519 56.6782 54.8588L56.7315 59.873C56.7599 62.5383 57.1716 64.5129 57.9665 65.7969C58.7729 67.0697 59.9747 67.7141 61.5719 67.7301C63.1462 67.7459 64.3062 67.159 65.0518 65.9696C65.809 64.7802 66.1911 62.8982 66.1982 60.3237L66.1435 55.1908Z" fill="#F9F0F0"/>
<path d="M55.6248 67.6196L54.0021 68.7643L54.0058 68.7693L55.6248 67.6196ZM53.5421 59.7733L51.5249 59.753L51.525 59.766L51.5253 59.7789L53.5421 59.7733ZM67.286 47.5632L65.6732 48.7211L65.6771 48.7262L67.286 47.5632ZM69.3346 55.4431L71.3518 55.4633L71.3517 55.4538L71.3515 55.4443L69.3346 55.4431ZM64.9443 49.3859L63.234 50.4024L63.2385 50.4095L64.9443 49.3859ZM56.6782 54.8588L54.6609 54.8207L54.6609 54.8296L54.661 54.8385L56.6782 54.8588ZM57.9665 65.7969L56.2491 66.8017L56.2546 66.8106L56.2602 66.8195L57.9665 65.7969ZM65.0518 65.9696L63.3354 64.8932L63.3283 64.9045L65.0518 65.9696ZM66.1982 60.3237L68.2154 60.37L68.2155 60.357L68.2153 60.3439L66.1982 60.3237ZM67.3608 59.4884C67.3981 63.0016 66.7987 65.2329 65.8891 66.5153L69.2144 68.8277C70.8179 66.567 71.4358 63.3564 71.3951 59.5289L67.3608 59.4884ZM65.8891 66.5153C65.0892 67.643 63.798 68.3278 61.5781 68.3056L61.6203 72.2705C64.8241 72.3026 67.5013 71.2431 69.2144 68.8277L65.8891 66.5153ZM61.5781 68.3056C59.3839 68.2836 58.0767 67.5879 57.2437 66.47L54.0058 68.7693C55.7839 71.1555 58.4596 72.2388 61.6203 72.2705L61.5781 68.3056ZM57.2474 66.4749C56.2971 65.1915 55.6373 63.054 55.5588 59.7677L51.5253 59.7789C51.6125 63.4276 52.3412 66.521 54.0022 68.7643L57.2474 66.4749ZM55.5592 59.7935L55.5147 55.6093L51.4804 55.5689L51.5249 59.753L55.5592 59.7935ZM55.5147 55.6093C55.4778 52.1446 56.0767 49.9516 56.9806 48.6937L53.669 46.362C52.0593 48.6021 51.4401 51.7833 51.4804 55.5689L55.5147 55.6093ZM56.9806 48.6937C57.7749 47.5883 59.071 46.9053 61.3161 46.9279L61.2739 42.9629C58.0722 42.9308 55.3882 43.9695 53.669 46.362L56.9806 48.6937ZM61.3161 46.9279C63.5559 46.9503 64.8624 47.6441 65.6732 48.7211L68.8988 46.4053C67.1224 44.046 64.4348 42.9946 61.2739 42.9629L61.3161 46.9279ZM65.6771 48.7262C66.5914 49.9326 67.2488 52.0557 67.3178 55.4418L71.3515 55.4443C71.276 51.7375 70.5677 48.6073 68.895 46.4002L65.6771 48.7262ZM67.3175 55.4228L67.3608 59.4884L71.3951 59.5289L71.3518 55.4633L67.3175 55.4228ZM68.1607 55.2111C68.1314 52.4603 67.7294 50.0642 66.65 48.3624L63.2385 50.4095C63.7017 51.1397 64.0992 52.6135 64.1264 55.1706L68.1607 55.2111ZM66.6545 48.3694C65.4562 46.463 63.5386 45.5603 61.3013 45.5378L61.3435 49.5028C62.3925 49.5133 62.8895 49.8543 63.2341 50.4024L66.6545 48.3694ZM61.3013 45.5378C59.0775 45.5155 57.1863 46.3732 56.0387 48.2505L59.5086 50.3436C59.8292 49.8192 60.3038 49.4923 61.3435 49.5028L61.3013 45.5378ZM56.0387 48.2505C55.0257 49.9079 54.657 52.1957 54.6609 54.8207L58.6954 54.8969C58.6919 52.508 59.0536 51.0881 59.5086 50.3436L56.0387 48.2505ZM54.661 54.8385L54.7144 59.8528L58.7487 59.8933L58.6953 54.879L54.661 54.8385ZM54.7144 59.8528C54.744 62.6329 55.1633 65.0481 56.2491 66.8017L59.684 64.792C59.1798 63.9776 58.7758 62.4436 58.7487 59.8933L54.7144 59.8528ZM56.2602 66.8195C57.4649 68.7211 59.3437 69.69 61.593 69.7126L61.5508 65.7476C60.6057 65.7382 60.0808 65.4182 59.6729 64.7742L56.2602 66.8195ZM61.593 69.7126C63.7831 69.7345 65.6275 68.8657 66.7754 67.0346L63.3283 64.9045C62.9849 65.4524 62.5093 65.7572 61.5508 65.7476L61.593 69.7126ZM66.7682 67.0459C67.8237 65.3878 68.2081 63.0536 68.2154 60.37L64.1809 60.2774C64.1741 62.7429 63.7942 64.1725 63.3355 64.8932L66.7682 67.0459ZM68.2153 60.3439L68.1607 55.2111L64.1264 55.1706L64.181 60.3034L68.2153 60.3439Z" fill="#0F0F0F"/>
</g>
<rect width="88.4441" height="89.2145" rx="20" transform="matrix(0.94415 -0.329516 0.35487 0.934916 0.397781 29.6005)" stroke="#0F0F0F" stroke-width="2"/>
</g>
<defs>
<filter id="filter0_d" x="-3.60222" y="0.456741" width="123.164" height="120.552" filterUnits="userSpaceOnUse" color-interpolation-filters="sRGB">
<feFlood flood-opacity="0" result="BackgroundImageFix"/>
<feColorMatrix in="SourceAlpha" type="matrix" values="0 0 0 0 0 0 0 0 0 0 0 0 0 0 0 0 0 0 127 0"/>
<feOffset dy="4"/>
<feGaussianBlur stdDeviation="2"/>
<feColorMatrix type="matrix" values="0 0 0 0 0 0 0 0 0 0 0 0 0 0 0 0 0 0 0.25 0"/>
<feBlend mode="normal" in2="BackgroundImageFix" result="effect1_dropShadow"/>
<feBlend mode="normal" in="SourceGraphic" in2="effect1_dropShadow" result="shape"/>
</filter>
<clipPath id="clip0">
<rect width="88.4441" height="89.2145" rx="20" transform="matrix(0.94415 -0.329516 0.35487 0.934916 0.397781 29.6005)" fill="white"/>
</clipPath>
</defs>
</svg>
