<svg width="117" height="117" viewBox="0 0 117 117" fill="none" xmlns="http://www.w3.org/2000/svg">
<g filter="url(#filter0_d)">
<g clip-path="url(#clip0)">
<rect width="88.4441" height="89.2145" rx="20" transform="matrix(0.94415 -0.329516 0.35487 0.934916 0.962128 29.3496)" fill="#516DE8"/>
<path d="M61.6803 67.9849L58.4743 67.9528L58.252 47.0657L51.8475 49.322L51.8172 46.4761L60.9167 43.1966L61.4165 43.2016L61.6803 67.9849Z" fill="#FDF5F5"/>
<path d="M61.6803 67.9849L61.7014 69.9674L63.7186 69.9876L63.6975 68.0052L61.6803 67.9849ZM58.4743 67.9528L56.4572 67.9325L56.4783 69.915L58.4954 69.9352L58.4743 67.9528ZM58.252 47.0657L60.2692 47.0859L60.2389 44.2458L57.5367 45.1978L58.252 47.0657ZM51.8475 49.322L49.8303 49.3018L49.8605 52.1419L52.5628 51.1899L51.8475 49.322ZM51.8172 46.4761L51.0884 44.613L49.7854 45.0826L49.8 46.4558L51.8172 46.4761ZM60.9167 43.1966L60.8956 41.2142L60.5294 41.2105L60.1879 41.3336L60.9167 43.1966ZM61.4165 43.2016L63.4337 43.2219L63.4126 41.2394L61.3954 41.2192L61.4165 43.2016ZM61.6592 66.0025L58.4532 65.9703L58.4954 69.9352L61.7014 69.9674L61.6592 66.0025ZM60.4915 67.973L60.2692 47.0859L56.2348 47.0455L56.4572 67.9325L60.4915 67.973ZM57.5367 45.1978L51.1322 47.4541L52.5628 51.1899L58.9673 48.9336L57.5367 45.1978ZM53.8647 49.3422L53.8344 46.4963L49.8 46.4558L49.8303 49.3018L53.8647 49.3422ZM52.546 48.3391L61.6455 45.0597L60.1879 41.3336L51.0884 44.613L52.546 48.3391ZM60.9378 45.1791L61.4376 45.1841L61.3954 41.2192L60.8956 41.2142L60.9378 45.1791ZM59.3994 43.1814L59.6632 67.9647L63.6975 68.0052L63.4337 43.2219L59.3994 43.1814Z" fill="#0F0F0F"/>
</g>
<rect width="88.4441" height="89.2145" rx="20" transform="matrix(0.94415 -0.329516 0.35487 0.934916 0.962128 29.3496)" stroke="#0F0F0F" stroke-width="2"/>
</g>
<defs>
<filter id="filter0_d" x="-3.03787" y="0.205856" width="123.164" height="120.552" filterUnits="userSpaceOnUse" color-interpolation-filters="sRGB">
<feFlood flood-opacity="0" result="BackgroundImageFix"/>
<feColorMatrix in="SourceAlpha" type="matrix" values="0 0 0 0 0 0 0 0 0 0 0 0 0 0 0 0 0 0 127 0"/>
<feOffset dy="4"/>
<feGaussianBlur stdDeviation="2"/>
<feColorMatrix type="matrix" values="0 0 0 0 0 0 0 0 0 0 0 0 0 0 0 0 0 0 0.25 0"/>
<feBlend mode="normal" in2="BackgroundImageFix" result="effect1_dropShadow"/>
<feBlend mode="normal" in="SourceGraphic" in2="effect1_dropShadow" result="shape"/>
</filter>
<clipPath id="clip0">
<rect width="88.4441" height="89.2145" rx="20" transform="matrix(0.94415 -0.329516 0.35487 0.934916 0.962128 29.3496)" fill="white"/>
</clipPath>
</defs>
</svg>
