<svg width="116" height="117" viewBox="0 0 116 117" fill="none" xmlns="http://www.w3.org/2000/svg">
<g filter="url(#filter0_d)">
<g clip-path="url(#clip0)">
<rect width="88.4441" height="89.2145" rx="20" transform="matrix(0.94415 -0.329516 0.35487 0.934916 0.397781 29.8156)" fill="#516DE8"/>
<path d="M70.1966 70.2506L53.7529 70.0857L53.729 67.8327L62.3152 58.4334C63.5869 57.012 64.4594 55.8577 64.9325 54.9704C65.417 54.0719 65.6541 53.1426 65.6439 52.1827C65.6302 50.8952 65.2225 49.8353 64.4209 49.003C63.6192 48.1706 62.5576 47.7478 61.2362 47.7345C59.6504 47.7186 58.4199 48.1523 57.5446 49.0356C56.6806 49.9078 56.2571 51.1343 56.2739 52.7154L53.0851 52.6834C53.061 50.4135 53.7826 48.5857 55.2501 47.2002C56.729 45.8148 58.7152 45.1346 61.2088 45.1597C63.5415 45.1831 65.3922 45.8057 66.761 47.0277C68.1297 48.2384 68.8247 49.8432 68.8459 51.8422C68.8718 54.2702 67.3283 57.1455 64.2154 60.4681L57.5695 67.5663L70.1694 67.6927L70.1966 70.2506Z" fill="#FEF9F9"/>
<path d="M70.1966 70.2506L70.2177 72.2331L72.2349 72.2533L72.2138 70.2709L70.1966 70.2506ZM53.7529 70.0857L51.7358 70.0655L51.7569 72.0479L53.774 72.0682L53.7529 70.0857ZM53.729 67.8327L52.2155 66.4914L51.7037 67.0517L51.7118 67.8124L53.729 67.8327ZM62.3152 58.4334L63.8287 59.7746L63.8354 59.7673L63.842 59.7598L62.3152 58.4334ZM64.9325 54.9704L63.1457 54.0139L63.1415 54.0219L64.9325 54.9704ZM57.5446 49.0356L56.0853 47.6374L56.0851 47.6376L57.5446 49.0356ZM56.2739 52.7154L56.295 54.6979L58.3122 54.7181L58.2911 52.7357L56.2739 52.7154ZM53.0851 52.6834L51.068 52.6632L51.0891 54.6457L53.1062 54.6659L53.0851 52.6834ZM55.2501 47.2002L53.8425 45.7517L53.837 45.757L55.2501 47.2002ZM66.761 47.0277L65.4216 48.4828L65.4287 48.489L66.761 47.0277ZM64.2154 60.4681L62.7185 59.109L62.7181 59.1094L64.2154 60.4681ZM57.5695 67.5663L56.0721 66.2076L52.9871 69.5026L57.5906 69.5488L57.5695 67.5663ZM70.1694 67.6927L72.1865 67.7129L72.1654 65.7305L70.1483 65.7102L70.1694 67.6927ZM70.1755 68.2682L53.7318 68.1032L53.774 72.0682L70.2177 72.2331L70.1755 68.2682ZM55.7701 70.1059L55.7461 67.8529L51.7118 67.8124L51.7358 70.0655L55.7701 70.1059ZM55.2424 69.1739L63.8287 59.7746L60.8017 57.0921L52.2155 66.4914L55.2424 69.1739ZM63.842 59.7598C65.1427 58.3062 66.1396 57.0139 66.7235 55.9189L63.1415 54.0219C62.7791 54.7015 62.0312 55.7179 60.7883 57.107L63.842 59.7598ZM66.7192 55.9268C67.3476 54.7615 67.675 53.5128 67.6611 52.2029L63.6267 52.1625C63.6332 52.7725 63.4864 53.3822 63.1457 54.014L66.7192 55.9268ZM67.6611 52.2029C67.6428 50.4828 67.0808 48.9107 65.8723 47.6559L62.9694 50.3501C63.3642 50.76 63.6176 51.3077 63.6267 52.1625L67.6611 52.2029ZM65.8723 47.6559C64.6283 46.3642 63.0032 45.77 61.2151 45.7521L61.2573 49.717C62.1121 49.7256 62.6102 49.977 62.9694 50.3501L65.8723 47.6559ZM61.2151 45.7521C59.2301 45.7322 57.4256 46.2849 56.0853 47.6374L59.0038 50.4339C59.4142 50.0198 60.0707 49.7051 61.2573 49.717L61.2151 45.7521ZM56.0851 47.6376C54.7627 48.9725 54.236 50.7511 54.2567 52.6952L58.2911 52.7357C58.2781 51.5176 58.5985 50.843 59.0041 50.4336L56.0851 47.6376ZM56.2528 50.733L53.064 50.701L53.1062 54.6659L56.295 54.6979L56.2528 50.733ZM55.1023 52.7037C55.0831 50.9 55.6375 49.6119 56.6632 48.6435L53.837 45.757C51.9277 47.5596 51.0388 49.927 51.068 52.6632L55.1023 52.7037ZM56.6576 48.6487C57.6906 47.6811 59.1405 47.1212 61.2299 47.1421L61.1877 43.1772C58.2899 43.1481 55.7674 43.9486 53.8425 45.7517L56.6576 48.6487ZM61.2299 47.1421C63.2038 47.1619 64.5216 47.6793 65.4216 48.4827L68.1004 45.5727C66.2627 43.9322 63.8791 43.2042 61.1877 43.1772L61.2299 47.1421ZM65.4287 48.489C66.315 49.273 66.8127 50.3131 66.8288 51.8219L70.8631 51.8624C70.8366 49.3734 69.9444 47.2039 68.0933 45.5665L65.4287 48.489ZM66.8288 51.8219C66.8463 53.4666 65.7559 55.867 62.7185 59.109L65.7123 61.8272C68.9006 58.4241 70.8973 55.0738 70.8631 51.8624L66.8288 51.8219ZM62.7181 59.1094L56.0721 66.2076L59.0668 68.925L65.7128 61.8268L62.7181 59.1094ZM57.5906 69.5488L70.1905 69.6752L70.1483 65.7102L57.5484 65.5838L57.5906 69.5488ZM68.1522 67.6725L68.1794 70.2304L72.2138 70.2709L72.1865 67.7129L68.1522 67.6725Z" fill="#0F0F0F"/>
</g>
<rect width="88.4441" height="89.2145" rx="20" transform="matrix(0.94415 -0.329516 0.35487 0.934916 0.397781 29.8156)" stroke="#0F0F0F" stroke-width="2"/>
</g>
<defs>
<filter id="filter0_d" x="-3.60222" y="0.67186" width="123.164" height="120.552" filterUnits="userSpaceOnUse" color-interpolation-filters="sRGB">
<feFlood flood-opacity="0" result="BackgroundImageFix"/>
<feColorMatrix in="SourceAlpha" type="matrix" values="0 0 0 0 0 0 0 0 0 0 0 0 0 0 0 0 0 0 127 0"/>
<feOffset dy="4"/>
<feGaussianBlur stdDeviation="2"/>
<feColorMatrix type="matrix" values="0 0 0 0 0 0 0 0 0 0 0 0 0 0 0 0 0 0 0.25 0"/>
<feBlend mode="normal" in2="BackgroundImageFix" result="effect1_dropShadow"/>
<feBlend mode="normal" in="SourceGraphic" in2="effect1_dropShadow" result="shape"/>
</filter>
<clipPath id="clip0">
<rect width="88.4441" height="89.2145" rx="20" transform="matrix(0.94415 -0.329516 0.35487 0.934916 0.397781 29.8156)" fill="white"/>
</clipPath>
</defs>
</svg>
