<svg width="115" height="117" viewBox="0 0 115 117" fill="none" xmlns="http://www.w3.org/2000/svg">
<g filter="url(#filter0_d)">
<g clip-path="url(#clip0)">
<rect width="87.4614" height="89.2145" rx="20" transform="matrix(0.94415 -0.329516 0.35487 0.934916 0.13063 29.6537)" fill="#516DE8"/>
<path d="M57.9749 56.1134L60.3708 56.1374C61.8759 56.1299 63.0553 55.7522 63.9091 55.0042C64.7629 54.2562 65.1829 53.2384 65.1692 51.951C65.1384 49.0599 63.6579 47.5996 60.7277 47.5703C59.3488 47.5564 58.2498 47.935 57.4307 48.7059C56.6231 49.4657 56.226 50.4836 56.2396 51.7598L53.0508 51.7278C53.03 49.7741 53.7367 48.1607 55.1709 46.8878C56.6164 45.6037 58.4596 44.9729 60.7003 44.9954C63.0675 45.0191 64.9298 45.6532 66.2874 46.8977C67.6449 48.1421 68.3354 49.8598 68.3587 52.0507C68.3701 53.1236 68.0249 54.159 67.3232 55.157C66.6329 56.1551 65.6814 56.8964 64.4687 57.3811C65.8522 57.8241 66.9226 58.5463 67.6801 59.5476C68.4491 60.549 68.8413 61.7668 68.8565 63.2011C68.8801 65.4146 68.1633 67.1633 66.7063 68.4473C65.2493 69.7313 63.3429 70.3615 60.9873 70.3378C58.6316 70.3142 56.706 69.6682 55.2103 68.3998C53.7261 67.1314 52.973 65.4696 52.9512 63.4142L56.1572 63.4463C56.171 64.7451 56.613 65.7884 57.4831 66.5763C58.3532 67.3642 59.5122 67.7654 60.9601 67.7799C62.4999 67.7953 63.6735 67.4119 64.4809 66.6295C65.2884 65.8472 65.6842 64.7163 65.6685 63.2369C65.6532 61.8026 65.1933 60.697 64.2889 59.9201C63.3844 59.1431 62.0875 58.7349 60.398 58.6954L58.0022 58.6713L57.9749 56.1134Z" fill="#FFFCFC"/>
<path d="M57.9749 56.1134L57.9538 54.1309L55.9367 54.1107L55.9578 56.0932L57.9749 56.1134ZM60.3708 56.1374L60.3919 58.1199L60.4073 58.12L60.4227 58.12L60.3708 56.1374ZM57.4307 48.7059L58.8412 50.1517L58.8417 50.1512L57.4307 48.7059ZM56.2396 51.7598L56.2607 53.7423L58.2779 53.7625L58.2568 51.78L56.2396 51.7598ZM53.0508 51.7278L51.0337 51.7076L51.0548 53.69L53.0719 53.7103L53.0508 51.7278ZM55.1709 46.8878L56.5399 48.3714L56.5405 48.3709L55.1709 46.8878ZM67.3232 55.157L65.656 54.0072L65.6517 54.0133L65.6474 54.0195L67.3232 55.157ZM64.4687 57.3811L63.6758 55.5424L58.5952 57.5729L63.8798 59.265L64.4687 57.3811ZM67.6801 59.5476L66.0701 60.7091L66.0746 60.715L66.0791 60.7209L67.6801 59.5476ZM66.7063 68.4473L65.3425 66.9591L66.7063 68.4473ZM55.2103 68.3998L53.9046 69.8843L53.9106 69.8893L55.2103 68.3998ZM52.9512 63.4142L52.9301 61.4317L50.9129 61.4115L50.934 63.394L52.9512 63.4142ZM56.1572 63.4463L58.1743 63.4666L58.1532 61.4841L56.1361 61.4639L56.1572 63.4463ZM64.4809 66.6295L63.0497 65.2036L64.4809 66.6295ZM60.398 58.6954L60.4044 56.7134L60.3907 56.713L60.3769 56.7129L60.398 58.6954ZM58.0022 58.6713L55.985 58.6511L56.0061 60.6336L58.0233 60.6538L58.0022 58.6713ZM57.996 58.0959L60.3919 58.1199L60.3497 54.155L57.9538 54.1309L57.996 58.0959ZM60.4227 58.12C62.263 58.1108 63.9595 57.6431 65.2687 56.4961L62.5495 53.5122C62.1512 53.8612 61.4887 54.1491 60.3189 54.1549L60.4227 58.12ZM65.2687 56.4961C66.6059 55.3245 67.2052 53.7396 67.1864 51.9712L63.152 51.9308C63.1606 52.7373 62.9198 53.1878 62.5495 53.5122L65.2687 56.4961ZM67.1864 51.9712C67.1677 50.222 66.7056 48.5412 65.45 47.3027C64.193 46.0629 62.4847 45.6056 60.7066 45.5878L60.7488 49.5527C61.901 49.5643 62.3981 49.8518 62.6215 50.0722C62.8464 50.294 63.1399 50.7888 63.152 51.9308L67.1864 51.9712ZM60.7066 45.5878C58.9199 45.5699 57.2839 46.0708 56.0198 47.2606L58.8417 50.1512C59.2157 49.7991 59.7777 49.543 60.7488 49.5527L60.7066 45.5878ZM56.0203 47.2602C54.7594 48.4462 54.204 50.011 54.2224 51.7396L58.2568 51.78C58.248 50.9563 58.4867 50.4851 58.8412 50.1517L56.0203 47.2602ZM56.2185 49.7773L53.0297 49.7453L53.0719 53.7103L56.2607 53.7423L56.2185 49.7773ZM55.068 51.748C55.053 50.3429 55.533 49.2651 56.5399 48.3714L53.8019 45.4042C51.9405 47.0563 51.007 49.2052 51.0337 51.7076L55.068 51.748ZM56.5405 48.3709C57.5676 47.4585 58.907 46.9596 60.7214 46.9778L60.6792 43.0129C58.0121 42.9861 55.6653 43.7489 53.8013 45.4047L56.5405 48.3709ZM60.7214 46.9778C62.7304 46.998 64.0464 47.5264 64.9278 48.3344L67.6469 45.4609C65.8133 43.78 63.4045 43.0402 60.6792 43.0129L60.7214 46.9778ZM64.9278 48.3344C65.7854 49.1206 66.3227 50.2632 66.3415 52.0305L70.3758 52.071C70.348 49.4565 69.5044 47.1637 67.6469 45.4609L64.9278 48.3344ZM66.3415 52.0305C66.348 52.6425 66.1597 53.2909 65.656 54.0072L68.9904 56.3068C69.8902 55.0271 70.3922 53.6047 70.3758 52.071L66.3415 52.0305ZM65.6474 54.0195C65.1885 54.683 64.5536 55.1916 63.6758 55.5424L65.2615 59.2199C66.8092 58.6013 68.0774 57.6271 68.999 56.2945L65.6474 54.0195ZM63.8798 59.265C64.9197 59.598 65.6065 60.0963 66.0701 60.7091L69.2901 58.386C68.2388 56.9962 66.7846 56.0503 65.0575 55.4973L63.8798 59.265ZM66.0791 60.7209C66.5428 61.3247 66.8279 62.1066 66.8394 63.1809L70.8737 63.2213C70.8546 61.4271 70.3555 59.7732 69.2812 58.3743L66.0791 60.7209ZM66.8394 63.1809C66.8578 64.9183 66.3169 66.1004 65.3425 66.9591L68.0701 69.9355C70.0098 68.2262 70.9023 65.9108 70.8737 63.2213L66.8394 63.1809ZM65.3425 66.9591C64.3201 67.86 62.9247 68.375 60.9662 68.3554L61.0084 72.3203C63.7612 72.3479 66.1784 71.6025 68.0701 69.9355L65.3425 66.9591ZM60.9662 68.3554C58.9901 68.3356 57.5643 67.8044 56.51 66.9102L53.9106 69.8893C55.8476 71.532 58.2732 72.2929 61.0084 72.3203L60.9662 68.3554ZM56.5159 66.9153C55.5137 66.0588 54.9846 64.9634 54.9683 63.4344L50.934 63.394C50.9615 65.9758 51.9385 68.2041 53.9047 69.8842L56.5159 66.9153ZM52.9723 65.3967L56.1783 65.4288L56.1361 61.4639L52.9301 61.4317L52.9723 65.3967ZM54.14 63.4261C54.1589 65.2006 54.7876 66.8034 56.1329 68.0215L58.8333 65.131C58.4384 64.7734 58.1831 64.2896 58.1743 63.4666L54.14 63.4261ZM56.1329 68.0215C57.4626 69.2256 59.1525 69.744 60.9812 69.7624L60.939 65.7974C59.8718 65.7867 59.2438 65.5027 58.8333 65.131L56.1329 68.0215ZM60.9812 69.7624C62.8636 69.7812 64.6171 69.3102 65.9122 68.0555L63.0497 65.2036C62.7298 65.5135 62.1361 65.8094 60.939 65.7974L60.9812 69.7624ZM65.9122 68.0555C67.2087 66.7992 67.7052 65.0938 67.6856 63.2571L63.6513 63.2166C63.6633 64.3388 63.3681 64.8951 63.0497 65.2036L65.9122 68.0555ZM67.6856 63.2571C67.6658 61.3914 67.0453 59.6818 65.5985 58.439L62.9792 61.4011C63.3414 61.7122 63.6406 62.2138 63.6513 63.2166L67.6856 63.2571ZM65.5985 58.439C64.2039 57.241 62.3735 56.7594 60.4044 56.7134L60.3917 60.6774C61.8014 60.7104 62.5649 61.0452 62.9792 61.4011L65.5985 58.439ZM60.3769 56.7129L57.9811 56.6889L58.0233 60.6538L60.4191 60.6778L60.3769 56.7129ZM60.0193 58.6916L59.9921 56.1336L55.9578 56.0932L55.985 58.6511L60.0193 58.6916Z" fill="#0F0F0F"/>
</g>
<rect width="87.4614" height="89.2145" rx="20" transform="matrix(0.94415 -0.329516 0.35487 0.934916 0.13063 29.6537)" stroke="#0F0F0F" stroke-width="2"/>
</g>
<defs>
<filter id="filter0_d" x="-3.86937" y="0.833817" width="122.236" height="120.228" filterUnits="userSpaceOnUse" color-interpolation-filters="sRGB">
<feFlood flood-opacity="0" result="BackgroundImageFix"/>
<feColorMatrix in="SourceAlpha" type="matrix" values="0 0 0 0 0 0 0 0 0 0 0 0 0 0 0 0 0 0 127 0"/>
<feOffset dy="4"/>
<feGaussianBlur stdDeviation="2"/>
<feColorMatrix type="matrix" values="0 0 0 0 0 0 0 0 0 0 0 0 0 0 0 0 0 0 0.25 0"/>
<feBlend mode="normal" in2="BackgroundImageFix" result="effect1_dropShadow"/>
<feBlend mode="normal" in="SourceGraphic" in2="effect1_dropShadow" result="shape"/>
</filter>
<clipPath id="clip0">
<rect width="87.4614" height="89.2145" rx="20" transform="matrix(0.94415 -0.329516 0.35487 0.934916 0.13063 29.6537)" fill="white"/>
</clipPath>
</defs>
</svg>
