<svg width="113" height="113" viewBox="0 0 113 113" fill="none" xmlns="http://www.w3.org/2000/svg">
<g filter="url(#filter0_d)">
<g clip-path="url(#clip0)">
<rect width="88.4441" height="89.2145" rx="20" transform="matrix(0.94415 -0.329516 0.35487 0.934916 0 29.1437)" fill="#4982DF"/>
<path d="M63.5741 59.7312L67.0559 59.7661L67.0831 62.324L63.6013 62.2891L63.6622 68.0148L60.4562 67.9827L60.3953 62.2569L48.9675 62.1423L48.9478 60.2959L60.0041 43.3161L63.3997 43.3501L63.5741 59.7312ZM52.5599 59.6207L60.3681 59.699L60.2393 47.6038L59.8673 48.2776L52.5599 59.6207Z" fill="#FCF2F2"/>
<path d="M63.5741 59.7312L61.5569 59.7109L61.578 61.6934L63.5952 61.7136L63.5741 59.7312ZM67.0559 59.7661L69.073 59.7863L69.0519 57.8038L67.0347 57.7836L67.0559 59.7661ZM67.0831 62.324L67.1042 64.3065L69.1213 64.3267L69.1002 62.3443L67.0831 62.324ZM63.6013 62.2891L63.5802 60.3066L61.563 60.2864L61.5841 62.2689L63.6013 62.2891ZM63.6622 68.0148L63.6833 69.9973L65.7005 70.0175L65.6794 68.0351L63.6622 68.0148ZM60.4562 67.9827L58.4391 67.9624L58.4602 69.9449L60.4773 69.9651L60.4562 67.9827ZM60.3953 62.2569L62.4125 62.2772L62.3914 60.2947L60.3742 60.2745L60.3953 62.2569ZM48.9675 62.1423L46.9503 62.1221L46.9714 64.1046L48.9886 64.1248L48.9675 62.1423ZM48.9478 60.2959L47.2421 59.2029L46.9244 59.6908L46.9307 60.2756L48.9478 60.2959ZM60.0041 43.3161L59.983 41.3336L58.8848 41.3226L58.2984 42.2231L60.0041 43.3161ZM63.3997 43.3501L65.4169 43.3704L65.3958 41.3879L63.3786 41.3677L63.3997 43.3501ZM52.5599 59.6207L50.8491 58.5356L48.8968 61.5662L52.581 61.6032L52.5599 59.6207ZM60.3681 59.699L60.3892 61.6815L62.4063 61.7017L62.3852 59.7192L60.3681 59.699ZM60.2393 47.6038L62.2565 47.624L58.4617 46.6307L60.2393 47.6038ZM59.8673 48.2776L61.5781 49.3627L61.6135 49.3078L61.645 49.2507L59.8673 48.2776ZM63.5952 61.7136L67.077 61.7486L67.0347 57.7836L63.553 57.7487L63.5952 61.7136ZM65.0387 59.7458L65.0659 62.3038L69.1002 62.3443L69.073 59.7863L65.0387 59.7458ZM67.062 60.3416L63.5802 60.3066L63.6224 64.2716L67.1042 64.3065L67.062 60.3416ZM61.5841 62.2689L61.6451 67.9946L65.6794 68.0351L65.6185 62.3093L61.5841 62.2689ZM63.6411 66.0324L60.4351 66.0002L60.4773 69.9651L63.6833 69.9973L63.6411 66.0324ZM62.4734 68.0029L62.4125 62.2772L58.3781 62.2367L58.4391 67.9624L62.4734 68.0029ZM60.3742 60.2745L48.9464 60.1599L48.9886 64.1248L60.4164 64.2394L60.3742 60.2745ZM50.9846 62.1626L50.965 60.3161L46.9307 60.2756L46.9503 62.1221L50.9846 62.1626ZM50.6535 61.3888L61.7098 44.409L58.2984 42.2231L47.2421 59.2029L50.6535 61.3888ZM60.0252 45.2985L63.4208 45.3326L63.3786 41.3677L59.983 41.3336L60.0252 45.2985ZM61.3826 43.3299L61.5569 59.7109L65.5912 59.7514L65.4169 43.3704L61.3826 43.3299ZM52.581 61.6032L60.3892 61.6815L60.347 57.7165L52.5388 57.6382L52.581 61.6032ZM62.3852 59.7192L62.2565 47.624L58.2222 47.5836L58.3509 59.6788L62.3852 59.7192ZM58.4617 46.6307L58.0897 47.3045L61.645 49.2507L62.017 48.5769L58.4617 46.6307ZM58.1566 47.1925L50.8491 58.5356L54.2707 60.7058L61.5781 49.3627L58.1566 47.1925Z" fill="#0F0F0F"/>
</g>
<rect width="88.4441" height="89.2145" rx="20" transform="matrix(0.94415 -0.329516 0.35487 0.934916 0 29.1437)" stroke="#0F0F0F" stroke-width="2"/>
</g>
<defs>
<filter id="filter0_d" x="-4" y="0" width="123.164" height="120.552" filterUnits="userSpaceOnUse" color-interpolation-filters="sRGB">
<feFlood flood-opacity="0" result="BackgroundImageFix"/>
<feColorMatrix in="SourceAlpha" type="matrix" values="0 0 0 0 0 0 0 0 0 0 0 0 0 0 0 0 0 0 127 0"/>
<feOffset dy="4"/>
<feGaussianBlur stdDeviation="2"/>
<feColorMatrix type="matrix" values="0 0 0 0 0 0 0 0 0 0 0 0 0 0 0 0 0 0 0.25 0"/>
<feBlend mode="normal" in2="BackgroundImageFix" result="effect1_dropShadow"/>
<feBlend mode="normal" in="SourceGraphic" in2="effect1_dropShadow" result="shape"/>
</filter>
<clipPath id="clip0">
<rect width="88.4441" height="89.2145" rx="20" transform="matrix(0.94415 -0.329516 0.35487 0.934916 0 29.1437)" fill="white"/>
</clipPath>
</defs>
</svg>
