<svg width="116" height="117" viewBox="0 0 116 117" fill="none" xmlns="http://www.w3.org/2000/svg">
<g filter="url(#filter0_d)">
<g clip-path="url(#clip0)">
<rect width="88.4441" height="89.2145" rx="20" transform="matrix(0.94415 -0.329516 0.35487 0.934916 0.397781 30.0308)" fill="#4982DF"/>
<path d="M55.0864 57.9493L56.231 45.6637L69.0895 45.7926L69.1203 48.6894L58.968 48.5876L58.2812 55.3051C59.5031 54.606 60.8955 54.2643 62.4583 54.2799C64.745 54.3029 66.5685 55.0664 67.9288 56.5707C69.289 58.0636 69.9826 60.0749 70.0095 62.6046C70.0366 65.1456 69.3569 67.1431 67.9707 68.5972C66.5958 70.0401 64.6558 70.749 62.1507 70.7239C59.933 70.7016 58.1167 70.0793 56.7019 68.8568C55.2872 67.6344 54.4707 65.955 54.2527 63.8185L57.2691 63.8488C57.4794 65.2624 58.0022 66.3348 58.8372 67.0659C59.6721 67.7856 60.7676 68.1523 62.1235 68.1659C63.6058 68.1808 64.7612 67.6955 65.5894 66.7101C66.4292 65.7248 66.8397 64.357 66.8211 62.6065C66.8036 60.9577 66.3299 59.6317 65.4 58.6287C64.4815 57.6145 63.2639 57.0998 61.747 57.0845C60.3566 57.0706 59.2682 57.3589 58.4817 57.9495L57.6443 58.6187L55.0864 57.9493Z" fill="#FFFEFE"/>
<path d="M55.0864 57.9493L53.0775 57.7282L52.9196 59.4234L54.6052 59.8645L55.0864 57.9493ZM56.231 45.6637L56.2099 43.6812L54.3879 43.6629L54.2221 45.4425L56.231 45.6637ZM69.0895 45.7926L71.1066 45.8129L71.0855 43.8304L69.0684 43.8102L69.0895 45.7926ZM69.1203 48.6894L69.1414 50.6719L71.1586 50.6921L71.1375 48.7096L69.1203 48.6894ZM58.968 48.5876L58.9469 46.6051L57.1409 46.587L56.9608 48.3491L58.968 48.5876ZM58.2812 55.3051L56.2739 55.0667L55.872 58.9981L59.3228 57.0238L58.2812 55.3051ZM67.9288 56.5707L66.4333 57.8705L66.4384 57.8761L67.9288 56.5707ZM67.9707 68.5972L66.4853 67.2258L66.485 67.2262L67.9707 68.5972ZM54.2527 63.8185L54.2316 61.8361L52.0248 61.8139L52.2455 63.976L54.2527 63.8185ZM57.2691 63.8488L59.265 63.6017L59.0094 61.884L57.248 61.8663L57.2691 63.8488ZM58.8372 67.0659L57.5128 68.5341L57.5188 68.5393L57.5248 68.5445L58.8372 67.0659ZM65.5894 66.7101L64.0319 65.4187L64.0234 65.4288L65.5894 66.7101ZM65.4 58.6287L63.9054 59.9296L63.9135 59.9385L63.9216 59.9473L65.4 58.6287ZM58.4817 57.9495L57.2362 56.365L57.2127 56.3826L57.1897 56.401L58.4817 57.9495ZM57.6443 58.6187L57.1631 60.5338L58.1532 60.7929L58.9362 60.1672L57.6443 58.6187ZM57.0953 58.1705L58.2399 45.8848L54.2221 45.4425L53.0775 57.7282L57.0953 58.1705ZM56.2521 47.6461L69.1106 47.7751L69.0684 43.8102L56.2099 43.6812L56.2521 47.6461ZM67.0723 45.7724L67.1031 48.6692L71.1375 48.7096L71.1066 45.8129L67.0723 45.7724ZM69.0992 46.7069L58.9469 46.6051L58.9891 50.57L69.1414 50.6719L69.0992 46.7069ZM56.9608 48.3491L56.2739 55.0667L60.2884 55.5436L60.9752 48.8261L56.9608 48.3491ZM59.3228 57.0238C60.2076 56.5175 61.2412 56.25 62.4794 56.2624L62.4372 52.2975C60.5498 52.2785 58.7986 52.6945 57.2395 53.5865L59.3228 57.0238ZM62.4794 56.2624C64.2712 56.2804 65.5123 56.8521 66.4333 57.8705L69.4244 55.2708C67.6247 53.2808 65.2188 52.3254 62.4372 52.2975L62.4794 56.2624ZM66.4384 57.8761C67.3805 58.9101 67.9691 60.4034 67.9923 62.5844L72.0267 62.6248C71.996 59.7463 71.1976 57.217 69.4192 55.2652L66.4384 57.8761ZM67.9923 62.5844C68.0155 64.7591 67.4401 66.2243 66.4853 67.2258L69.456 69.9686C71.2737 68.0619 72.0576 65.5321 72.0267 62.6248L67.9923 62.5844ZM66.485 67.2262C65.5718 68.1845 64.2163 68.7623 62.1296 68.7414L62.1718 72.7063C65.0953 72.7357 67.6197 71.8958 69.4563 69.9682L66.485 67.2262ZM62.1296 68.7414C60.3037 68.7231 58.9917 68.2227 58.0161 67.3797L55.3877 70.3339C57.2417 71.9359 59.5622 72.6802 62.1718 72.7063L62.1296 68.7414ZM58.0161 67.3797C57.0603 66.5539 56.4355 65.382 56.2598 63.6611L52.2455 63.976C52.506 66.5279 53.514 68.7149 55.3877 70.3339L58.0161 67.3797ZM54.2738 65.801L57.2902 65.8313L57.248 61.8663L54.2316 61.8361L54.2738 65.801ZM55.2732 64.0959C55.5314 65.8315 56.2144 67.3973 57.5128 68.5341L60.1616 65.5976C59.79 65.2722 59.4275 64.6934 59.265 63.6017L55.2732 64.0959ZM57.5248 68.5445C58.8119 69.6541 60.4187 70.1311 62.1446 70.1484L62.1024 66.1835C61.1165 66.1736 60.5323 65.9172 60.1496 65.5872L57.5248 68.5445ZM62.1446 70.1484C64.1406 70.1684 65.8973 69.4882 67.1554 67.9914L64.0234 65.4288C63.625 65.9029 63.0711 66.1932 62.1024 66.1835L62.1446 70.1484ZM67.1469 68.0015C68.3794 66.5554 68.8601 64.6809 68.8383 62.6267L64.8039 62.5863C64.8193 64.033 64.4789 64.8943 64.032 65.4187L67.1469 68.0015ZM68.8383 62.6267C68.8167 60.6023 68.2232 58.7607 66.8784 57.3101L63.9216 59.9473C64.4365 60.5027 64.7904 61.313 64.8039 62.5863L68.8383 62.6267ZM66.8946 57.3278C65.5439 55.8363 63.749 55.1224 61.7259 55.1021L61.7681 59.067C62.7787 59.0772 63.4191 59.3927 63.9054 59.9296L66.8946 57.3278ZM61.7259 55.1021C60.0615 55.0854 58.486 55.4265 57.2362 56.365L59.7272 59.534C60.0503 59.2914 60.6518 59.0558 61.7681 59.067L61.7259 55.1021ZM57.1897 56.401L56.3523 57.0701L58.9362 60.1672L59.7736 59.4981L57.1897 56.401ZM58.1255 56.7035L55.5676 56.0342L54.6052 59.8645L57.1631 60.5338L58.1255 56.7035Z" fill="#0F0F0F"/>
</g>
<rect width="88.4441" height="89.2145" rx="20" transform="matrix(0.94415 -0.329516 0.35487 0.934916 0.397781 30.0308)" stroke="#0F0F0F" stroke-width="2"/>
</g>
<defs>
<filter id="filter0_d" x="-3.60222" y="0.887039" width="123.164" height="120.552" filterUnits="userSpaceOnUse" color-interpolation-filters="sRGB">
<feFlood flood-opacity="0" result="BackgroundImageFix"/>
<feColorMatrix in="SourceAlpha" type="matrix" values="0 0 0 0 0 0 0 0 0 0 0 0 0 0 0 0 0 0 127 0"/>
<feOffset dy="4"/>
<feGaussianBlur stdDeviation="2"/>
<feColorMatrix type="matrix" values="0 0 0 0 0 0 0 0 0 0 0 0 0 0 0 0 0 0 0.25 0"/>
<feBlend mode="normal" in2="BackgroundImageFix" result="effect1_dropShadow"/>
<feBlend mode="normal" in="SourceGraphic" in2="effect1_dropShadow" result="shape"/>
</filter>
<clipPath id="clip0">
<rect width="88.4441" height="89.2145" rx="20" transform="matrix(0.94415 -0.329516 0.35487 0.934916 0.397781 30.0308)" fill="white"/>
</clipPath>
</defs>
</svg>
