<svg width="115" height="116" viewBox="0 0 115 116" fill="none" xmlns="http://www.w3.org/2000/svg">
<g filter="url(#filter0_d)">
<rect width="87.4614" height="89.2145" rx="20" transform="matrix(0.94415 -0.329516 0.35487 0.934916 0.13063 28.8689)" fill="#4982DF"/>
<path d="M65.8012 44.9225L65.7907 43.9313L64.7821 43.9212L64.2133 43.9155L64.2059 43.9154L64.1984 43.9154C60.0821 43.9338 56.8441 45.2147 54.664 47.8807L54.6636 47.8811C52.5273 50.4966 51.5603 54.2104 51.61 58.8728L51.6228 60.0755C51.655 63.1073 52.4782 65.6882 54.1687 67.7361L54.1706 67.7385C55.8808 69.7977 58.1289 70.8545 60.8293 70.8815C63.4392 70.9077 65.6015 70.0776 67.202 68.3337C68.8022 66.603 69.5408 64.3203 69.5118 61.5931C69.4843 59.0147 68.7515 56.8113 67.2386 55.0691C65.7124 53.298 63.6699 52.413 61.2185 52.3884C59.7651 52.3738 58.4578 52.6366 57.3201 53.1883C57.6991 52.0392 58.2787 51.1166 59.038 50.3939C60.2736 49.218 61.9762 48.5777 64.255 48.5574L64.8315 48.5632L65.8401 48.5733L65.8295 47.5821L65.8012 44.9225ZM63.3522 65.155L63.3522 65.155L63.3481 65.1603C62.7475 65.9295 61.9318 66.3188 60.7806 66.3073C59.7555 66.297 58.8753 65.8544 58.0955 64.8206C57.3166 63.7878 56.8698 62.3718 56.8497 60.4837L56.8394 59.5148C57.1224 58.817 57.6017 58.2242 58.3102 57.7315C59.0592 57.2107 59.8586 56.9655 60.733 56.9743C61.8073 56.9851 62.6172 57.3821 63.2576 58.1905L63.2575 58.1905L63.2651 58.1999C63.936 59.0266 64.3256 60.1605 64.342 61.6937C64.3582 63.2168 63.9976 64.3401 63.3522 65.155Z" fill="#FEF5F5" stroke="#0F0F0F" stroke-width="2"/>
<rect width="87.4614" height="89.2145" rx="20" transform="matrix(0.94415 -0.329516 0.35487 0.934916 0.13063 28.8689)" stroke="#0F0F0F" stroke-width="2"/>
</g>
<defs>
<filter id="filter0_d" x="-3.86937" y="0.048996" width="122.236" height="120.228" filterUnits="userSpaceOnUse" color-interpolation-filters="sRGB">
<feFlood flood-opacity="0" result="BackgroundImageFix"/>
<feColorMatrix in="SourceAlpha" type="matrix" values="0 0 0 0 0 0 0 0 0 0 0 0 0 0 0 0 0 0 127 0"/>
<feOffset dy="4"/>
<feGaussianBlur stdDeviation="2"/>
<feColorMatrix type="matrix" values="0 0 0 0 0 0 0 0 0 0 0 0 0 0 0 0 0 0 0.25 0"/>
<feBlend mode="normal" in2="BackgroundImageFix" result="effect1_dropShadow"/>
<feBlend mode="normal" in="SourceGraphic" in2="effect1_dropShadow" result="shape"/>
</filter>
</defs>
</svg>
