<svg width="116" height="117" viewBox="0 0 116 117" fill="none" xmlns="http://www.w3.org/2000/svg">
<g filter="url(#filter0_d)">
<g clip-path="url(#clip0)">
<rect width="88.4441" height="89.2145" rx="20" transform="matrix(0.94415 -0.329516 0.35487 0.934916 0.647781 29.2992)" fill="#3DA8CF"/>
<path d="M69.9615 46.8289L59.8116 69.6276L56.4678 69.5941L66.5918 47.6082L53.0094 47.4719L52.982 44.897L69.9428 45.0672L69.9615 46.8289Z" fill="#FFF4F4"/>
<path d="M69.9615 46.8289L71.8123 47.6549L71.9832 47.2712L71.9787 46.8492L69.9615 46.8289ZM59.8116 69.6276L59.8327 71.6101L61.1418 71.6232L61.6625 70.4536L59.8116 69.6276ZM56.4678 69.5941L54.627 68.7459L53.3381 71.5449L56.4889 71.5765L56.4678 69.5941ZM66.5918 47.6082L68.4326 48.4563L69.7215 45.6573L66.5707 45.6257L66.5918 47.6082ZM53.0094 47.4719L50.9922 47.4517L51.0133 49.4342L53.0305 49.4544L53.0094 47.4719ZM52.982 44.897L52.9609 42.9146L50.9437 42.8943L50.9648 44.8768L52.982 44.897ZM69.9428 45.0672L71.9599 45.0874L71.9388 43.1049L69.9217 43.0847L69.9428 45.0672ZM68.1107 46.0029L57.9608 68.8016L61.6625 70.4536L71.8123 47.6549L68.1107 46.0029ZM59.7905 67.6451L56.4467 67.6116L56.4889 71.5765L59.8327 71.6101L59.7905 67.6451ZM58.3085 70.4422L68.4326 48.4563L64.751 46.76L54.627 68.7459L58.3085 70.4422ZM66.5707 45.6257L52.9883 45.4895L53.0305 49.4544L66.6129 49.5906L66.5707 45.6257ZM55.0266 47.4922L54.9992 44.9173L50.9648 44.8768L50.9922 47.4517L55.0266 47.4922ZM53.0031 46.8795L69.9639 47.0496L69.9217 43.0847L52.9609 42.9146L53.0031 46.8795ZM67.9256 45.0469L67.9443 46.8087L71.9787 46.8492L71.9599 45.0874L67.9256 45.0469Z" fill="#0F0F0F"/>
</g>
<rect width="88.4441" height="89.2145" rx="20" transform="matrix(0.94415 -0.329516 0.35487 0.934916 0.647781 29.2992)" stroke="#0F0F0F" stroke-width="2"/>
</g>
<defs>
<filter id="filter0_d" x="-3.35222" y="0.155502" width="123.164" height="120.552" filterUnits="userSpaceOnUse" color-interpolation-filters="sRGB">
<feFlood flood-opacity="0" result="BackgroundImageFix"/>
<feColorMatrix in="SourceAlpha" type="matrix" values="0 0 0 0 0 0 0 0 0 0 0 0 0 0 0 0 0 0 127 0"/>
<feOffset dy="4"/>
<feGaussianBlur stdDeviation="2"/>
<feColorMatrix type="matrix" values="0 0 0 0 0 0 0 0 0 0 0 0 0 0 0 0 0 0 0.25 0"/>
<feBlend mode="normal" in2="BackgroundImageFix" result="effect1_dropShadow"/>
<feBlend mode="normal" in="SourceGraphic" in2="effect1_dropShadow" result="shape"/>
</filter>
<clipPath id="clip0">
<rect width="88.4441" height="89.2145" rx="20" transform="matrix(0.94415 -0.329516 0.35487 0.934916 0.647781 29.2992)" fill="white"/>
</clipPath>
</defs>
</svg>
