<svg width="116" height="117" viewBox="0 0 116 117" fill="none" xmlns="http://www.w3.org/2000/svg">
<g filter="url(#filter0_d)">
<g clip-path="url(#clip0)">
<rect width="88.4441" height="89.2145" rx="20" transform="matrix(0.94415 -0.329516 0.35487 0.934916 0.385155 29.246)" fill="#3DA8CF"/>
<path d="M68.7662 51.4413C68.7793 52.6723 68.4577 53.7644 67.8014 54.7176C67.1567 55.671 66.2741 56.4131 65.1537 56.9439C66.4696 57.5104 67.5124 58.3282 68.2821 59.3974C69.0633 60.4667 69.461 61.6733 69.4754 63.0172C69.4981 65.1517 68.7807 66.8439 67.3233 68.094C65.8774 69.3443 63.9594 69.9574 61.5693 69.9334C59.1562 69.9092 57.2132 69.2574 55.7404 67.9779C54.2789 66.6872 53.5369 64.9803 53.5143 62.8571C53.5001 61.5245 53.855 60.3255 54.5791 59.26C55.3146 58.1946 56.3343 57.3918 57.6384 56.8515C56.518 56.2983 55.631 55.5385 54.9773 54.5721C54.3235 53.6057 53.9902 52.5126 53.9772 51.293C53.9551 49.215 54.6155 47.5729 55.9585 46.3669C57.3014 45.1608 59.0818 44.5689 61.2996 44.5911C63.5058 44.6132 65.2934 45.2409 66.6624 46.4742C68.0428 47.7076 68.744 49.3633 68.7662 51.4413ZM66.2859 62.9175C66.2712 61.5397 65.8111 60.4115 64.9055 59.5329C64.0115 58.6545 62.8463 58.208 61.4099 58.1936C59.9735 58.1792 58.8232 58.5968 57.959 59.4463C57.1063 60.296 56.6875 61.421 56.7024 62.8214C56.7173 64.2217 57.1484 65.327 57.9958 66.1373C58.8547 66.9476 60.0367 67.3604 61.5421 67.3755C63.0359 67.3904 64.2037 67.0013 65.0455 66.208C65.8872 65.4034 66.3007 64.3066 66.2859 62.9175ZM61.327 47.166C60.0745 47.1534 59.0616 47.5272 58.2884 48.2873C57.5265 49.0363 57.1526 50.0657 57.1665 51.3758C57.1799 52.6293 57.5699 53.6495 58.3366 54.4364C59.1147 55.2121 60.1414 55.6063 61.4169 55.6191C62.6924 55.6319 63.7053 55.2581 64.4556 54.4978C65.2172 53.7262 65.5913 52.7137 65.5779 51.4601C65.5646 50.2066 65.1573 49.1805 64.356 48.3821C63.5547 47.5836 62.545 47.1782 61.327 47.166Z" fill="#F5E1E1"/>
<path d="M67.8014 54.7176L66.1233 53.5835L66.1188 53.5901L66.1143 53.5967L67.8014 54.7176ZM65.1537 56.9439L64.2475 55.1546L60.325 57.0129L64.3766 58.7572L65.1537 56.9439ZM68.2821 59.3974L66.6433 60.52L66.6475 60.5258L66.6517 60.5316L68.2821 59.3974ZM67.3233 68.094L65.9791 66.5887L65.9733 66.5938L67.3233 68.094ZM55.7404 67.9779L54.4093 69.4402L54.4156 69.4458L54.422 69.4514L55.7404 67.9779ZM54.5791 59.26L52.9024 58.1238L52.8983 58.1296L52.8943 58.1355L54.5791 59.26ZM57.6384 56.8515L58.4544 58.6809L62.4482 57.0264L58.5142 55.0837L57.6384 56.8515ZM55.9585 46.3669L54.581 44.8908L55.9585 46.3669ZM66.6624 46.4742L65.316 47.923L65.3223 47.9287L66.6624 46.4742ZM64.9055 59.5329L63.4941 60.9205L63.5034 60.9295L64.9055 59.5329ZM57.959 59.4463L56.5177 58.0302L56.5084 58.0394L57.959 59.4463ZM57.9958 66.1373L56.6045 67.5444L56.6145 67.5538L57.9958 66.1373ZM65.0455 66.208L66.4573 67.6525L66.4673 67.643L65.0455 66.208ZM58.2884 48.2873L56.8471 46.8712L58.2884 48.2873ZM58.3366 54.4364L56.8935 55.7921L56.9039 55.8028L56.9145 55.8134L58.3366 54.4364ZM64.4556 54.4978L62.9937 53.1022L62.9934 53.1025L64.4556 54.4978ZM66.749 51.4211C66.7581 52.2783 66.5408 52.9772 66.1233 53.5835L69.4795 55.8517C70.3746 54.5516 70.8004 53.0663 70.7833 51.4615L66.749 51.4211ZM66.1143 53.5967C65.677 54.2433 65.0726 54.7637 64.2475 55.1546L66.06 58.7331C67.4756 58.0625 68.6363 57.0987 69.4885 55.8386L66.1143 53.5967ZM64.3766 58.7572C65.3761 59.1875 66.1093 59.7782 66.6433 60.52L69.9208 58.2748C68.9155 56.8783 67.5631 55.8332 65.9309 55.1305L64.3766 58.7572ZM66.6517 60.5316C67.1777 61.2515 67.4481 62.052 67.4582 62.997L71.4925 63.0375C71.474 61.2946 70.9489 59.6819 69.9125 58.2632L66.6517 60.5316ZM67.4582 62.997C67.4756 64.631 66.9515 65.7547 65.9792 66.5888L68.6675 69.5993C70.6099 67.9332 71.5206 65.6724 71.4925 63.0375L67.4582 62.997ZM65.9733 66.5938C64.971 67.4605 63.564 67.9712 61.5482 67.9509L61.5904 71.9159C64.3549 71.9436 66.7839 71.228 68.6734 69.5943L65.9733 66.5938ZM61.5482 67.9509C59.5037 67.9304 58.0763 67.3884 57.0588 66.5044L54.422 69.4514C56.3501 71.1264 58.8086 71.888 61.5904 71.9159L61.5482 67.9509ZM57.0715 66.5155C56.0911 65.6497 55.5488 64.5069 55.5315 62.8774L51.4972 62.8369C51.525 65.4537 52.4667 67.7247 54.4093 69.4402L57.0715 66.5155ZM55.5315 62.8774C55.5214 61.9268 55.7676 61.1146 56.2638 60.3844L52.8943 58.1355C51.9425 59.5363 51.4789 61.1222 51.4972 62.8369L55.5315 62.8774ZM56.2558 60.3961C56.762 59.6628 57.4715 59.088 58.4544 58.6809L56.8225 55.0222C55.1971 55.6955 53.8671 56.7264 52.9024 58.1238L56.2558 60.3961ZM58.5142 55.0837C57.6948 54.6791 57.0912 54.1504 56.6501 53.4983L53.3044 55.6458C54.1707 56.9265 55.3413 57.9175 56.7627 58.6194L58.5142 55.0837ZM56.6501 53.4983C56.2306 52.8781 56.0035 52.17 55.9944 51.3132L51.96 51.2727C51.9769 52.8553 52.4165 54.3332 53.3044 55.6458L56.6501 53.4983ZM55.9944 51.3132C55.9772 49.6995 56.4702 48.6204 57.3359 47.8429L54.581 44.8908C52.7608 46.5255 51.933 48.7305 51.96 51.2727L55.9944 51.3132ZM57.3359 47.8429C58.2375 47.0332 59.4973 46.5553 61.3207 46.5736L61.2785 42.6086C58.6663 42.5824 56.3653 43.2883 54.581 44.8908L57.3359 47.8429ZM61.3207 46.5736C63.1294 46.5917 64.3951 47.0933 65.316 47.923L68.0087 45.0255C66.1918 43.3886 63.8823 42.6348 61.2785 42.6086L61.3207 46.5736ZM65.3223 47.9287C66.2139 48.7253 66.7319 49.8128 66.749 51.4211L70.7833 51.4615C70.7562 48.9138 69.8716 46.69 68.0024 45.0198L65.3223 47.9287ZM68.303 62.9377C68.2834 61.0955 67.6467 59.4355 66.3076 58.1363L63.5034 60.9295C63.9755 61.3875 64.259 61.9839 64.2687 62.8972L68.303 62.9377ZM66.317 58.1454C64.9834 56.8351 63.2743 56.2301 61.3888 56.2111L61.431 60.1761C62.4182 60.186 63.0396 60.4738 63.4941 60.9204L66.317 58.1454ZM61.3888 56.2111C59.5117 56.1923 57.8174 56.7525 56.5178 58.0302L59.4003 60.8624C59.829 60.441 60.4353 60.1661 61.431 60.1761L61.3888 56.2111ZM56.5084 58.0394C55.2276 59.3156 54.6657 60.9702 54.6852 62.8011L58.7195 62.8416C58.7092 61.8717 58.9851 61.2763 59.4096 60.8532L56.5084 58.0394ZM54.6852 62.8011C54.7045 64.6121 55.2794 66.2773 56.6045 67.5443L59.3871 64.7302C59.0174 64.3768 58.7301 63.8313 58.7195 62.8416L54.6852 62.8011ZM56.6145 67.5538C57.9498 68.8137 59.6878 69.3391 61.5632 69.3579L61.521 65.393C60.3857 65.3816 59.7595 65.0816 59.3771 64.7208L56.6145 67.5538ZM61.5632 69.3579C63.432 69.3767 65.1513 68.8833 66.4573 67.6525L63.6338 64.7635C63.2562 65.1193 62.6398 65.4042 61.521 65.393L61.5632 69.3579ZM66.4673 67.643C67.7683 66.3993 68.3223 64.7517 68.303 62.9377L64.2687 62.8972C64.279 63.8614 64.0061 64.4075 63.6237 64.773L66.4673 67.643ZM61.3059 45.1835C59.5961 45.1664 58.0458 45.6929 56.8471 46.8712L59.7296 49.7034C60.0774 49.3616 60.5528 49.1405 61.3481 49.1485L61.3059 45.1835ZM56.8471 46.8712C55.6302 48.0675 55.1311 49.6451 55.1493 51.3555L59.1837 51.396C59.174 50.4864 59.4228 50.005 59.7296 49.7034L56.8471 46.8712ZM55.1493 51.3555C55.1672 53.0306 55.705 54.5724 56.8935 55.7921L59.7797 53.0807C59.4347 52.7266 59.1925 52.2281 59.1837 51.396L55.1493 51.3555ZM56.9145 55.8134C58.1384 57.0335 59.7176 57.5843 61.438 57.6015L61.3958 53.6366C60.5653 53.6283 60.0909 53.3906 59.7586 53.0594L56.9145 55.8134ZM61.438 57.6015C63.1577 57.6188 64.7272 57.0995 65.9177 55.893L62.9934 53.1025C62.6834 53.4167 62.2272 53.6449 61.3958 53.6366L61.438 57.6015ZM65.9174 55.8933C67.0966 54.6988 67.613 53.1639 67.5951 51.4804L63.5608 51.4399C63.5695 52.2635 63.3377 52.7536 62.9937 53.1022L65.9174 55.8933ZM67.5951 51.4804C67.577 49.7792 67.0048 48.2275 65.7778 47.0048L62.9342 49.7593C63.3098 50.1336 63.5522 50.6339 63.5608 51.4399L67.5951 51.4804ZM65.7778 47.0048C64.5613 45.7926 63.017 45.2007 61.3059 45.1835L61.3481 49.1485C62.073 49.1557 62.5481 49.3746 62.9342 49.7593L65.7778 47.0048Z" fill="#0F0F0F"/>
</g>
<rect width="88.4441" height="89.2145" rx="20" transform="matrix(0.94415 -0.329516 0.35487 0.934916 0.385155 29.246)" stroke="#0F0F0F" stroke-width="2"/>
</g>
<defs>
<filter id="filter0_d" x="-3.61485" y="0.10228" width="123.164" height="120.552" filterUnits="userSpaceOnUse" color-interpolation-filters="sRGB">
<feFlood flood-opacity="0" result="BackgroundImageFix"/>
<feColorMatrix in="SourceAlpha" type="matrix" values="0 0 0 0 0 0 0 0 0 0 0 0 0 0 0 0 0 0 127 0"/>
<feOffset dy="4"/>
<feGaussianBlur stdDeviation="2"/>
<feColorMatrix type="matrix" values="0 0 0 0 0 0 0 0 0 0 0 0 0 0 0 0 0 0 0.25 0"/>
<feBlend mode="normal" in2="BackgroundImageFix" result="effect1_dropShadow"/>
<feBlend mode="normal" in="SourceGraphic" in2="effect1_dropShadow" result="shape"/>
</filter>
<clipPath id="clip0">
<rect width="88.4441" height="89.2145" rx="20" transform="matrix(0.94415 -0.329516 0.35487 0.934916 0.385155 29.246)" fill="white"/>
</clipPath>
</defs>
</svg>
