<svg width="115" height="117" viewBox="0 0 115 117" fill="none" xmlns="http://www.w3.org/2000/svg">
<g filter="url(#filter0_d)">
<g clip-path="url(#clip0)">
<rect width="87.4614" height="89.2145" rx="20" transform="matrix(0.94415 -0.329516 0.35487 0.934916 0.462128 29.4562)" fill="#3DA8CF"/>
<path d="M64.9784 59.3368C64.3203 60.1093 63.5283 60.7281 62.6026 61.1931C61.6883 61.6582 60.6797 61.8852 59.5765 61.8741C58.1287 61.8596 56.8609 61.4968 55.7733 60.7858C54.6972 60.0749 53.8594 59.0841 53.2599 57.8133C52.6602 56.5313 52.3523 55.1224 52.3359 53.5865C52.3184 51.9376 52.6186 50.4557 53.2365 49.1407C53.8659 47.8259 54.763 46.8242 55.9276 46.1358C57.0922 45.4474 58.4559 45.111 60.0187 45.1267C62.5008 45.1515 64.464 46.0859 65.9083 47.9297C67.3641 49.7624 68.1087 52.2541 68.1422 55.405L68.152 56.3197C68.2031 61.1194 67.2751 64.6163 65.3682 66.8104C63.4612 68.9933 60.5602 70.0934 56.6654 70.1108L56.0448 70.1046L56.0167 67.4619L56.6889 67.4687C59.3199 67.4499 61.3352 66.7982 62.7347 65.5137C64.1342 64.2178 64.8821 62.1588 64.9784 59.3368ZM60.066 59.2875C61.1347 59.2982 62.1138 58.9862 63.0032 58.3515C63.9041 57.7169 64.5564 56.9273 64.96 55.9828L64.9466 54.7292C64.9248 52.6739 64.4531 50.9979 63.5316 49.7013C62.6101 48.4048 61.4541 47.7495 60.0637 47.7356C58.6618 47.7215 57.5413 48.241 56.7023 49.2941C55.8632 50.3358 55.4528 51.7206 55.4712 53.4485C55.4891 55.1312 55.9118 56.5244 56.7393 57.6281C57.5782 58.7205 58.6871 59.2737 60.066 59.2875Z" fill="#F7E7E7"/>
<path d="M64.9784 59.3368L66.9946 59.4441L67.1935 53.6173L63.4208 58.0457L64.9784 59.3368ZM62.6026 61.1931L61.6553 59.4238L61.6462 59.4284L62.6026 61.1931ZM55.7733 60.7858L54.6719 62.4241L54.6803 62.4296L55.7733 60.7858ZM53.2599 57.8133L51.43 58.6104L51.4328 58.6165L53.2599 57.8133ZM53.2365 49.1407L51.4079 48.2666L51.402 48.279L53.2365 49.1407ZM65.9083 47.9297L64.3193 49.1187L64.328 49.1295L65.9083 47.9297ZM65.3682 66.8104L66.9102 68.1197L66.9135 68.116L65.3682 66.8104ZM56.6654 70.1108L56.6865 72.0933L56.7013 72.0934L56.7162 72.0933L56.6654 70.1108ZM56.0448 70.1046L54.0277 70.0843L54.0488 72.0668L56.0659 72.087L56.0448 70.1046ZM56.0167 67.4619L55.9956 65.4794L53.9784 65.4592L53.9995 67.4417L56.0167 67.4619ZM56.6889 67.4687L56.71 69.4511L56.7277 69.4513L56.7453 69.4512L56.6889 67.4687ZM62.7347 65.5137L64.1278 66.9756L64.1341 66.9698L62.7347 65.5137ZM63.0032 58.3515L61.8058 56.7319L61.796 56.7389L63.0032 58.3515ZM64.96 55.9828L66.8224 56.7823L66.9815 56.41L66.9771 56.003L64.96 55.9828ZM56.7023 49.2941L58.2939 50.5443L58.3003 50.5362L56.7023 49.2941ZM56.7393 57.6281L55.124 58.7827L55.1311 58.792L55.1382 58.8013L56.7393 57.6281ZM63.4208 58.0457C62.9333 58.6178 62.3496 59.0751 61.6553 59.4238L63.5498 62.9623C64.707 62.3811 65.7072 61.6009 66.5361 60.6279L63.4208 58.0457ZM61.6462 59.4284C61.0376 59.738 60.3529 59.8997 59.5554 59.8917L59.5976 63.8566C61.0064 63.8707 62.3391 63.5783 63.5589 62.9578L61.6462 59.4284ZM59.5554 59.8917C58.4538 59.8806 57.5834 59.6108 56.8663 59.142L54.6803 62.4296C56.1384 63.3828 57.8035 63.8386 59.5976 63.8566L59.5554 59.8917ZM56.8747 59.1475C56.1449 58.6654 55.5437 57.9784 55.0869 57.0102L51.4328 58.6165C52.175 60.1898 53.2495 61.4844 54.6719 62.4241L56.8747 59.1475ZM55.0898 57.0163C54.6218 56.0158 54.3667 54.8889 54.3531 53.6067L50.3187 53.5662C50.3378 55.3558 50.6986 57.0468 51.43 58.6104L55.0898 57.0163ZM54.3531 53.6067C54.3382 52.2116 54.5915 51.0228 55.071 50.0024L51.402 48.279C50.6456 49.8887 50.2985 51.6637 50.3187 53.5662L54.3531 53.6067ZM55.0651 50.0149C55.5441 49.0142 56.19 48.3152 56.9934 47.8404L54.8618 44.4312C53.3359 45.3332 52.1877 46.6376 51.4079 48.2666L55.0651 50.0149ZM56.9934 47.8404C57.8024 47.3621 58.794 47.0966 60.0398 47.1091L59.9976 43.1442C58.1179 43.1253 56.3821 43.5326 54.8618 44.4312L56.9934 47.8404ZM60.0398 47.1091C61.9368 47.1281 63.2876 47.8015 64.3194 49.1186L67.4973 46.7408C65.6404 44.3703 63.0647 43.1749 59.9976 43.1442L60.0398 47.1091ZM64.328 49.1295C65.4185 50.5024 66.0945 52.5137 66.1251 55.3847L70.1594 55.4252C70.1229 51.9945 69.3097 49.0224 67.4887 46.7299L64.328 49.1295ZM66.1251 55.3847L66.1348 56.2995L70.1692 56.3399L70.1594 55.4252L66.1251 55.3847ZM66.1348 56.2995C66.1839 60.9104 65.2747 63.8345 63.8229 65.5049L66.9135 68.116C69.2756 65.3981 70.2222 61.3283 70.1692 56.3399L66.1348 56.2995ZM63.8262 65.5011C62.3998 67.1338 60.1263 68.1126 56.6145 68.1282L56.7162 72.0933C60.9942 72.0742 64.5225 70.8527 66.9102 68.1197L63.8262 65.5011ZM56.6443 68.1283L56.0237 68.1221L56.0659 72.087L56.6865 72.0933L56.6443 68.1283ZM58.062 70.1248L58.0339 67.4821L53.9995 67.4417L54.0277 70.0843L58.062 70.1248ZM56.0378 69.4444L56.71 69.4511L56.6678 65.4862L55.9956 65.4794L56.0378 69.4444ZM56.7453 69.4512C59.6938 69.4301 62.2542 68.6952 64.1278 66.9756L61.3417 64.0517C60.4161 64.9012 58.946 65.4696 56.6326 65.4861L56.7453 69.4512ZM64.1341 66.9698C66.0593 65.187 66.889 62.5366 66.9946 59.4441L62.9623 59.2294C62.8752 61.781 62.209 63.2486 61.3354 64.0575L64.1341 66.9698ZM60.0871 61.27C61.6011 61.2851 62.9923 60.8333 64.2104 59.964L61.796 56.7389C61.2352 57.1391 60.6683 57.3113 60.0449 57.305L60.0871 61.27ZM64.2006 59.971C65.3758 59.1432 66.2688 58.0778 66.8224 56.7823L63.0976 55.1833C62.844 55.7768 62.4324 56.2906 61.8058 56.732L64.2006 59.971ZM66.9771 56.003L66.9638 54.7495L62.9295 54.709L62.9428 55.9626L66.9771 56.003ZM66.9638 54.7495C66.939 52.4152 66.4005 50.3095 65.1775 48.5888L61.8856 50.8139C62.5056 51.6862 62.9106 52.9325 62.9295 54.709L66.9638 54.7495ZM65.1775 48.5888C63.9383 46.8451 62.1992 45.7748 60.0426 45.7531L60.0848 49.7181C60.7091 49.7243 61.2819 49.9645 61.8856 50.8139L65.1775 48.5888ZM60.0426 45.7531C58.0367 45.733 56.3294 46.5144 55.1043 48.0519L58.3003 50.5362C58.7533 49.9677 59.287 49.7101 60.0848 49.7181L60.0426 45.7531ZM55.1107 48.0439C53.9193 49.5229 53.4322 51.3825 53.454 53.4283L57.4883 53.4688C57.4733 52.0588 57.807 51.1487 58.2939 50.5443L55.1107 48.0439ZM53.454 53.4283C53.4753 55.4297 53.9838 57.2619 55.124 58.7827L58.3546 56.4734C57.8398 55.7869 57.5028 54.8328 57.4883 53.4688L53.454 53.4283ZM55.1382 58.8013C56.3634 60.3968 58.0733 61.2498 60.0871 61.27L60.0449 57.305C59.3009 57.2976 58.793 57.0442 58.3404 56.4548L55.1382 58.8013Z" fill="#0F0F0F"/>
</g>
<rect width="87.4614" height="89.2145" rx="20" transform="matrix(0.94415 -0.329516 0.35487 0.934916 0.462128 29.4562)" stroke="#0F0F0F" stroke-width="2"/>
</g>
<defs>
<filter id="filter0_d" x="-3.53787" y="0.636276" width="122.236" height="120.228" filterUnits="userSpaceOnUse" color-interpolation-filters="sRGB">
<feFlood flood-opacity="0" result="BackgroundImageFix"/>
<feColorMatrix in="SourceAlpha" type="matrix" values="0 0 0 0 0 0 0 0 0 0 0 0 0 0 0 0 0 0 127 0"/>
<feOffset dy="4"/>
<feGaussianBlur stdDeviation="2"/>
<feColorMatrix type="matrix" values="0 0 0 0 0 0 0 0 0 0 0 0 0 0 0 0 0 0 0.25 0"/>
<feBlend mode="normal" in2="BackgroundImageFix" result="effect1_dropShadow"/>
<feBlend mode="normal" in="SourceGraphic" in2="effect1_dropShadow" result="shape"/>
</filter>
<clipPath id="clip0">
<rect width="87.4614" height="89.2145" rx="20" transform="matrix(0.94415 -0.329516 0.35487 0.934916 0.462128 29.4562)" fill="white"/>
</clipPath>
</defs>
</svg>
