<svg width="116" height="114" viewBox="0 0 116 114" fill="none" xmlns="http://www.w3.org/2000/svg">
<g filter="url(#filter0_d)">
<g clip-path="url(#clip0)">
<rect width="90.4095" height="85.6459" rx="20" transform="matrix(0.94415 -0.329516 0.35487 0.934916 0 30.0905)" fill="#31CDBE"/>
<path d="M61.1409 62.7265C60.8988 64.96 60.075 66.6794 58.6697 67.8849C57.2741 69.0807 55.4042 69.6669 53.06 69.6434C50.5189 69.6179 48.4705 68.7021 46.9149 66.8958C45.3692 65.0897 44.5804 62.6863 44.5484 59.6855L44.5268 57.6526C44.5059 55.6876 44.8421 53.9633 45.5354 52.4797C46.2385 50.9962 47.2409 49.8641 48.5424 49.0835C49.8438 48.2932 51.3563 47.9067 53.08 47.9239C55.3651 47.9469 57.2038 48.5944 58.5961 49.8667C59.9883 51.1292 60.8095 52.87 61.0596 55.089L58.2082 55.0604C57.944 53.3736 57.3942 52.1485 56.5589 51.3852C55.7333 50.622 54.5818 50.2329 53.1044 50.2181C51.2921 50.1999 49.8759 50.8439 48.8557 52.15C47.8454 53.4562 47.3531 55.3242 47.379 57.7538L47.4008 59.8012C47.4252 62.0953 47.9322 63.9249 48.9217 65.2899C49.9112 66.6549 51.2826 67.3462 53.0358 67.3638C54.6117 67.3796 55.8145 67.0432 56.6443 66.3546C57.4839 65.6565 58.0322 64.4376 58.2895 62.6979L61.1409 62.7265ZM77.153 59.8237L67.8305 59.7302L67.9103 67.2226L78.7397 67.3312L78.764 69.6108L65.0979 69.4738L64.8729 48.3326L78.3913 48.4682L78.4157 50.7624L67.7339 50.6552L67.8063 57.4506L77.1288 57.5441L77.153 59.8237Z" fill="#FAEBEB"/>
<path d="M61.1409 62.7265L63.1469 62.9768L63.3865 60.7668L61.1198 60.7441L61.1409 62.7265ZM58.6697 67.8849L60.0131 69.3908L60.0139 69.3901L58.6697 67.8849ZM46.9149 66.8958L45.3823 68.1535L45.3865 68.1584L46.9149 66.8958ZM45.5354 52.4797L43.7036 51.6122L43.6991 51.6217L45.5354 52.4797ZM48.5424 49.0835L49.619 50.7816L49.6282 50.776L48.5424 49.0835ZM58.5961 49.8667L57.239 51.3057L57.2447 51.3109L58.5961 49.8667ZM61.0596 55.089L61.0807 57.0715L63.3106 57.0938L63.0646 54.911L61.0596 55.089ZM58.2082 55.0604L56.2145 55.3223L56.4812 57.0253L58.2293 57.0429L58.2082 55.0604ZM56.5589 51.3852L55.1928 52.816L55.2017 52.8242L56.5589 51.3852ZM48.8557 52.15L47.2461 50.9225L47.2405 50.9297L48.8557 52.15ZM56.6443 66.3546L57.9642 67.8804L57.9658 67.8791L56.6443 66.3546ZM58.2895 62.6979L58.2684 60.7155L56.5407 60.6981L56.293 62.3732L58.2895 62.6979ZM59.1349 62.4763C58.9337 64.3323 58.2812 65.5598 57.3255 66.3796L60.0139 69.3901C61.8688 67.799 62.8638 65.5876 63.1469 62.9768L59.1349 62.4763ZM57.3262 66.3789C56.3801 67.1896 55.0227 67.6808 53.0389 67.6609L53.0811 71.6259C55.7857 71.653 58.1681 70.9718 60.0131 69.3908L57.3262 66.3789ZM53.0389 67.6609C51.0475 67.641 49.5826 66.9561 48.4434 65.6333L45.3865 68.1584C47.3584 70.448 49.9903 71.5949 53.0811 71.6259L53.0389 67.6609ZM48.4476 65.6382C47.2888 64.2842 46.594 62.376 46.5656 59.7057L42.5313 59.6652C42.5667 62.9965 43.4496 65.8953 45.3823 68.1535L48.4476 65.6382ZM46.5656 59.7057L46.544 57.6729L42.5096 57.6324L42.5313 59.6652L46.5656 59.7057ZM46.544 57.6729C46.5256 55.9424 46.822 54.5138 47.3716 53.3376L43.6991 51.6217C42.8622 53.4128 42.4862 55.4328 42.5096 57.6324L46.544 57.6729ZM47.3672 53.3471C47.9225 52.1755 48.6769 51.3466 49.619 50.7816L47.4658 47.3853C45.8048 48.3815 44.5546 49.8168 43.7036 51.6122L47.3672 53.3471ZM49.6282 50.776C50.5753 50.2009 51.7098 49.8925 53.1011 49.9064L53.0589 45.9415C51.0029 45.9209 49.1123 46.3854 47.4565 47.3909L49.6282 50.776ZM53.1011 49.9064C54.9921 49.9254 56.3007 50.4483 57.239 51.3056L59.9532 48.4277C58.1069 46.7406 55.7381 45.9683 53.0589 45.9415L53.1011 49.9064ZM57.2447 51.3109C58.1973 52.1747 58.847 53.4253 59.0546 55.267L63.0646 54.911C62.7719 52.3147 61.7793 50.0837 59.9475 48.4225L57.2447 51.3109ZM61.0385 53.1065L58.1871 53.0779L58.2293 57.0429L61.0807 57.0715L61.0385 53.1065ZM60.2018 54.7985C59.903 52.8902 59.2331 51.1497 57.916 49.9462L55.2017 52.8242C55.5554 53.1474 55.9851 53.8571 56.2145 55.3223L60.2018 54.7985ZM57.9249 49.9544C56.6143 48.7427 54.9068 48.2539 53.0833 48.2356L53.1255 52.2006C54.2569 52.2119 54.8524 52.5012 55.1928 52.816L57.9249 49.9544ZM53.0833 48.2356C50.6973 48.2117 48.673 49.0957 47.2461 50.9225L50.4653 53.3775C51.0788 52.592 51.887 52.1882 53.1255 52.2006L53.0833 48.2356ZM47.2405 50.9297C45.8665 52.7061 45.3334 55.0636 45.3618 57.7336L49.3962 57.7741C49.3729 55.5847 49.8243 54.2063 50.4709 53.3703L47.2405 50.9297ZM45.3618 57.7336L45.3836 59.7809L49.418 59.8214L49.3962 57.7741L45.3618 57.7336ZM45.3836 59.7809C45.4108 62.3325 45.9755 64.609 47.2869 66.418L50.5565 64.1618C49.8889 63.2408 49.4396 61.8582 49.418 59.8214L45.3836 59.7809ZM47.2869 66.418C48.6771 68.3357 50.6784 69.3224 53.0569 69.3462L53.0147 65.3813C51.8867 65.37 51.1453 64.9741 50.5565 64.1618L47.2869 66.418ZM53.0569 69.3462C54.9058 69.3648 56.6441 68.9759 57.9642 67.8804L55.3244 64.8288C54.985 65.1105 54.3176 65.3944 53.0147 65.3813L53.0569 69.3462ZM57.9658 67.8791C59.3382 66.7378 59.9993 64.9608 60.2859 63.0227L56.293 62.3732C56.0652 63.9144 55.6296 64.5751 55.3229 64.8301L57.9658 67.8791ZM58.3106 64.6804L61.162 64.709L61.1198 60.7441L58.2684 60.7155L58.3106 64.6804ZM77.153 59.8237L77.1741 61.8062L79.1913 61.8265L79.1702 59.844L77.153 59.8237ZM67.8305 59.7302L67.8094 57.7478L65.7923 57.7275L65.8134 59.71L67.8305 59.7302ZM67.9103 67.2226L65.8931 67.2023L65.9142 69.1848L67.9314 69.205L67.9103 67.2226ZM78.7397 67.3312L80.7569 67.3514L80.7358 65.369L78.7186 65.3487L78.7397 67.3312ZM78.764 69.6108L78.7851 71.5933L80.8023 71.6135L80.7812 69.6311L78.764 69.6108ZM65.0979 69.4738L63.0807 69.4535L63.1018 71.436L65.119 71.4562L65.0979 69.4738ZM64.8729 48.3326L64.8518 46.3501L62.8346 46.3299L62.8557 48.3124L64.8729 48.3326ZM78.3913 48.4682L80.4084 48.4884L80.3873 46.506L78.3702 46.4857L78.3913 48.4682ZM78.4157 50.7624L78.4368 52.7448L80.4539 52.7651L80.4328 50.7826L78.4157 50.7624ZM67.7339 50.6552L67.7128 48.6728L65.6957 48.6525L65.7168 50.635L67.7339 50.6552ZM67.8063 57.4506L65.7891 57.4304L65.8102 59.4128L67.8274 59.4331L67.8063 57.4506ZM77.1288 57.5441L79.1459 57.5643L79.1248 55.5819L77.1077 55.5616L77.1288 57.5441ZM77.1319 57.8413L67.8094 57.7478L67.8516 61.7127L77.1741 61.8062L77.1319 57.8413ZM65.8134 59.71L65.8931 67.2023L69.9274 67.2428L69.8477 59.7505L65.8134 59.71ZM67.9314 69.205L78.7608 69.3137L78.7186 65.3487L67.8892 65.2401L67.9314 69.205ZM76.7226 67.311L76.7468 69.5906L80.7812 69.6311L80.7569 67.3514L76.7226 67.311ZM78.7429 67.6284L65.0768 67.4913L65.119 71.4562L78.7851 71.5933L78.7429 67.6284ZM67.1151 69.494L66.89 48.3528L62.8557 48.3124L63.0807 69.4535L67.1151 69.494ZM64.894 50.3151L78.4124 50.4507L78.3702 46.4857L64.8518 46.3501L64.894 50.3151ZM76.3741 48.448L76.3985 50.7421L80.4328 50.7826L80.4084 48.4884L76.3741 48.448ZM78.3946 48.7799L67.7128 48.6728L67.755 52.6377L78.4368 52.7448L78.3946 48.7799ZM65.7168 50.635L65.7891 57.4304L69.8234 57.4708L69.7511 50.6755L65.7168 50.635ZM67.8274 59.4331L77.1499 59.5266L77.1077 55.5616L67.7852 55.4681L67.8274 59.4331ZM75.1116 57.5239L75.1359 59.8035L79.1702 59.844L79.1459 57.5643L75.1116 57.5239Z" fill="#0F0F0F"/>
</g>
<rect width="90.4095" height="85.6459" rx="20" transform="matrix(0.94415 -0.329516 0.35487 0.934916 0 30.0905)" stroke="#0F0F0F" stroke-width="2"/>
</g>
<defs>
<filter id="filter0_d" x="-4" y="0.299149" width="123.753" height="117.863" filterUnits="userSpaceOnUse" color-interpolation-filters="sRGB">
<feFlood flood-opacity="0" result="BackgroundImageFix"/>
<feColorMatrix in="SourceAlpha" type="matrix" values="0 0 0 0 0 0 0 0 0 0 0 0 0 0 0 0 0 0 127 0"/>
<feOffset dy="4"/>
<feGaussianBlur stdDeviation="2"/>
<feColorMatrix type="matrix" values="0 0 0 0 0 0 0 0 0 0 0 0 0 0 0 0 0 0 0.25 0"/>
<feBlend mode="normal" in2="BackgroundImageFix" result="effect1_dropShadow"/>
<feBlend mode="normal" in="SourceGraphic" in2="effect1_dropShadow" result="shape"/>
</filter>
<clipPath id="clip0">
<rect width="90.4095" height="85.6459" rx="20" transform="matrix(0.94415 -0.329516 0.35487 0.934916 0 30.0905)" fill="white"/>
</clipPath>
</defs>
</svg>
