<svg width="114" height="113" viewBox="0 0 114 113" fill="none" xmlns="http://www.w3.org/2000/svg">
<g filter="url(#filter0_d)">
<g clip-path="url(#clip0)">
<rect width="88.4441" height="85.6459" rx="20" transform="matrix(0.94415 -0.329516 0.35487 0.934916 0 29.1437)" fill="#31CCBD"/>
<path d="M61.0502 54.4712L66.1202 46.4207L69.4591 46.4542L62.7746 56.8695L69.8467 67.597L66.4781 67.5632L61.1012 59.2628L55.8703 67.4568L52.5166 67.4232L59.3765 56.8354L52.454 46.2836L55.7782 46.317L61.0502 54.4712Z" fill="#FCEDED"/>
<path d="M61.0502 54.4712L59.354 55.5096L61.0948 58.2021L62.7716 55.5396L61.0502 54.4712ZM66.1202 46.4207L66.0991 44.4382L64.9815 44.427L64.3988 45.3523L66.1202 46.4207ZM69.4591 46.4542L71.1717 47.5365L73.115 44.5086L69.438 44.4717L69.4591 46.4542ZM62.7746 56.8695L61.062 55.7872L60.3804 56.8493L61.0883 57.9231L62.7746 56.8695ZM69.8467 67.597L69.8678 69.5795L73.5589 69.6165L71.533 66.5434L69.8467 67.597ZM66.4781 67.5632L64.7829 68.6032L65.3862 69.5345L66.4992 69.5457L66.4781 67.5632ZM61.1012 59.2628L62.7964 58.2228L61.0665 55.5522L59.3861 58.1844L61.1012 59.2628ZM55.8703 67.4568L55.8914 69.4393L57.0011 69.4504L57.5854 68.5352L55.8703 67.4568ZM52.5166 67.4232L50.8085 66.3339L48.8423 69.3686L52.5377 69.4056L52.5166 67.4232ZM59.3765 56.8354L61.0846 57.9247L61.7723 56.8632L61.0653 55.7856L59.3765 56.8354ZM52.454 46.2836L52.4329 44.3012L48.7517 44.2642L50.7652 47.3335L52.454 46.2836ZM55.7782 46.317L57.4745 45.2785L56.8713 44.3457L55.7571 44.3345L55.7782 46.317ZM62.7716 55.5396L67.8416 47.4891L64.3988 45.3523L59.3288 53.4028L62.7716 55.5396ZM66.1413 48.4032L69.4802 48.4367L69.438 44.4717L66.0991 44.4382L66.1413 48.4032ZM67.7466 45.3719L61.062 55.7872L64.4871 57.9518L71.1717 47.5365L67.7466 45.3719ZM61.0883 57.9231L68.1604 68.6506L71.533 66.5434L64.4609 55.8159L61.0883 57.9231ZM69.8256 65.6145L66.457 65.5807L66.4992 69.5457L69.8678 69.5795L69.8256 65.6145ZM68.1734 66.5233L62.7964 58.2228L59.406 60.3027L64.7829 68.6032L68.1734 66.5233ZM59.3861 58.1844L54.1552 66.3784L57.5854 68.5352L62.8163 60.3412L59.3861 58.1844ZM55.8492 65.4743L52.4955 65.4407L52.5377 69.4056L55.8914 69.4393L55.8492 65.4743ZM54.2246 68.5125L61.0846 57.9247L57.6685 55.7461L50.8085 66.3339L54.2246 68.5125ZM61.0653 55.7856L54.1429 45.2338L50.7652 47.3335L57.6877 57.8852L61.0653 55.7856ZM52.4752 48.2661L55.7993 48.2994L55.7571 44.3345L52.4329 44.3012L52.4752 48.2661ZM54.082 47.3554L59.354 55.5096L62.7464 53.4327L57.4745 45.2785L54.082 47.3554Z" fill="#0F0F0F"/>
</g>
<rect width="88.4441" height="85.6459" rx="20" transform="matrix(0.94415 -0.329516 0.35487 0.934916 0 29.1437)" stroke="#0F0F0F" stroke-width="2"/>
</g>
<defs>
<filter id="filter0_d" x="-4" y="0" width="121.898" height="117.215" filterUnits="userSpaceOnUse" color-interpolation-filters="sRGB">
<feFlood flood-opacity="0" result="BackgroundImageFix"/>
<feColorMatrix in="SourceAlpha" type="matrix" values="0 0 0 0 0 0 0 0 0 0 0 0 0 0 0 0 0 0 127 0"/>
<feOffset dy="4"/>
<feGaussianBlur stdDeviation="2"/>
<feColorMatrix type="matrix" values="0 0 0 0 0 0 0 0 0 0 0 0 0 0 0 0 0 0 0.25 0"/>
<feBlend mode="normal" in2="BackgroundImageFix" result="effect1_dropShadow"/>
<feBlend mode="normal" in="SourceGraphic" in2="effect1_dropShadow" result="shape"/>
</filter>
<clipPath id="clip0">
<rect width="88.4441" height="85.6459" rx="20" transform="matrix(0.94415 -0.329516 0.35487 0.934916 0 29.1437)" fill="white"/>
</clipPath>
</defs>
</svg>
