<svg width="116" height="117" viewBox="0 0 116 117" fill="none" xmlns="http://www.w3.org/2000/svg">
<g filter="url(#filter0_d)">
<rect width="88.4441" height="89.2145" rx="20" transform="matrix(0.94415 -0.329516 0.35487 0.934916 0.647781 29.6005)" fill="#4341A4"/>
<path d="M48.5518 50.7735C48.5518 49.4942 48.957 48.4395 49.7676 47.6094C50.5879 46.7793 51.6377 46.3643 52.917 46.3643C54.2158 46.3643 55.2656 46.7842 56.0664 47.6241C56.877 48.4541 57.2822 49.5332 57.2822 50.8614L57.2822 51.9014C57.2822 53.1905 56.8721 54.2451 56.0518 55.0655C55.2412 55.876 54.2061 56.2813 52.9463 56.2813C51.6768 56.2813 50.627 55.876 49.7969 55.0655C48.9668 54.2451 48.5518 53.1563 48.5518 51.7989L48.5518 50.7735ZM50.5732 51.9014C50.5732 52.6631 50.7881 53.293 51.2178 53.791C51.6475 54.2793 52.2236 54.5235 52.9463 54.5235C53.6396 54.5235 54.1963 54.2842 54.6162 53.8057C55.0459 53.3272 55.2607 52.6729 55.2607 51.8428L55.2607 50.7735C55.2607 50.0117 55.0508 49.3819 54.6309 48.8838C54.2109 48.3858 53.6396 48.1367 52.917 48.1367C52.1943 48.1367 51.623 48.3858 51.2031 48.8838C50.7832 49.3819 50.5732 50.0313 50.5732 50.8321L50.5732 51.9014ZM58.9375 62.7705C58.9375 61.4912 59.3428 60.4414 60.1533 59.6211C60.9736 58.791 62.0234 58.376 63.3027 58.376C64.582 58.376 65.6318 58.7862 66.4521 59.6065C67.2725 60.4268 67.6826 61.5157 67.6826 62.8731L67.6826 63.9131C67.6826 65.1924 67.2725 66.2471 66.4521 67.0772C65.6416 67.8975 64.6016 68.3076 63.332 68.3076C62.0625 68.3076 61.0127 67.9024 60.1826 67.0918C59.3525 66.2715 58.9375 65.1826 58.9375 63.8252L58.9375 62.7705ZM60.959 63.9131C60.959 64.6846 61.1738 65.3194 61.6035 65.8174C62.0332 66.3057 62.6094 66.5498 63.332 66.5498C64.0352 66.5498 64.5967 66.3106 65.0166 65.8321C65.4365 65.3438 65.6465 64.6846 65.6465 63.8545L65.6465 62.7705C65.6465 61.9991 65.4316 61.3692 65.002 60.8809C64.582 60.3926 64.0156 60.1485 63.3027 60.1485C62.6094 60.1485 62.043 60.3926 61.6035 60.8809C61.1738 61.3594 60.959 62.0088 60.959 62.8291L60.959 63.9131ZM53.5615 66.3887L52.0234 65.4219L62.4385 48.752L63.9766 49.7188L53.5615 66.3887Z" fill="white"/>
<path d="M49.7676 47.6094L48.345 46.2036L48.3366 46.2121L49.7676 47.6094ZM56.0664 47.6241L54.6189 49.0042L54.6271 49.0128L54.6355 49.0213L56.0664 47.6241ZM49.7969 55.0655L48.391 56.488L48.3996 56.4964L49.7969 55.0655ZM51.2178 53.791L49.7035 55.0975L49.7099 55.1049L49.7163 55.1123L51.2178 53.791ZM54.6162 53.8057L53.1281 52.4694L53.1205 52.4779L53.113 52.4865L54.6162 53.8057ZM60.1533 59.6211L58.7308 58.2153L58.7307 58.2154L60.1533 59.6211ZM66.4521 67.0772L65.0296 65.6714L65.0295 65.6715L66.4521 67.0772ZM60.1826 67.0918L58.7768 68.5144L58.7853 68.5228L60.1826 67.0918ZM61.6035 65.8174L60.0892 67.1239L60.0956 67.1313L60.1021 67.1387L61.6035 65.8174ZM65.0166 65.8321L66.5199 67.1512L66.5265 67.1437L66.533 67.1361L65.0166 65.8321ZM65.002 60.8809L63.4856 62.185L63.493 62.1936L63.5005 62.2021L65.002 60.8809ZM61.6035 60.8809L60.1169 59.543L60.1154 59.5446L61.6035 60.8809ZM53.5615 66.3887L52.4972 68.082L54.1951 69.1492L55.2577 67.4484L53.5615 66.3887ZM52.0234 65.4219L50.3273 64.3622L49.2704 66.0537L50.9591 67.1152L52.0234 65.4219ZM62.4385 48.752L63.5028 47.0587L61.8049 45.9915L60.7423 47.6923L62.4385 48.752ZM63.9766 49.7188L65.6727 50.7785L66.7296 49.087L65.0409 48.0255L63.9766 49.7188ZM50.5518 50.7735C50.5518 49.9577 50.7918 49.4232 51.1985 49.0067L48.3366 46.2121C47.1222 47.4558 46.5518 49.0306 46.5518 50.7735L50.5518 50.7735ZM51.1901 49.0152C51.5967 48.6038 52.1156 48.3643 52.917 48.3643L52.917 44.3643C51.1598 44.3643 49.5791 44.9548 48.345 46.2036L51.1901 49.0152ZM52.917 48.3643C53.7407 48.3643 54.2425 48.6094 54.6189 49.0042L57.5139 46.2439C56.2888 44.9591 54.6909 44.3643 52.917 44.3643L52.917 48.3643ZM54.6355 49.0213C55.0278 49.4231 55.2822 49.9736 55.2822 50.8614L59.2822 50.8614C59.2822 49.0928 58.7261 47.4852 57.4974 46.2268L54.6355 49.0213ZM55.2822 50.8614L55.2822 51.9014L59.2822 51.9014L59.2822 50.8614L55.2822 50.8614ZM55.2822 51.9014C55.2822 52.7246 55.0394 53.2493 54.6375 53.6512L57.466 56.4797C58.7047 55.241 59.2822 53.6563 59.2822 51.9014L55.2822 51.9014ZM54.6375 53.6512C54.241 54.0478 53.7333 54.2813 52.9463 54.2813L52.9463 58.2813C54.6788 58.2813 56.2414 57.7042 57.466 56.4797L54.6375 53.6512ZM52.9463 54.2813C52.145 54.2813 51.6137 54.0442 51.1942 53.6345L48.3996 56.4964C49.6402 57.7078 51.2085 58.2813 52.9463 58.2813L52.9463 54.2813ZM51.2027 53.6429C50.8151 53.2599 50.5518 52.7162 50.5518 51.7989L46.5518 51.7989C46.5518 53.5964 47.1185 55.2304 48.3911 56.488L51.2027 53.6429ZM50.5518 51.7989L50.5518 50.7735L46.5518 50.7735L46.5518 51.7989L50.5518 51.7989ZM48.5732 51.9014C48.5732 53.0625 48.9117 54.1798 49.7035 55.0975L52.7321 52.4846C52.6644 52.4062 52.5732 52.2637 52.5732 51.9014L48.5732 51.9014ZM49.7163 55.1123C50.5705 56.0829 51.7203 56.5235 52.9463 56.5235L52.9463 52.5235C52.8119 52.5235 52.7585 52.5014 52.7525 52.4989C52.7481 52.497 52.7465 52.4959 52.7448 52.4947C52.7429 52.4933 52.7341 52.4868 52.7192 52.4698L49.7163 55.1123ZM52.9463 56.5235C54.1576 56.5235 55.2833 56.0777 56.1195 55.1249L53.113 52.4865C53.1055 52.495 53.1 52.5004 53.0966 52.5036C53.0932 52.5067 53.0914 52.508 53.0912 52.5082C53.0909 52.5084 53.0915 52.508 53.0925 52.5074C53.0936 52.5067 53.0942 52.5065 53.094 52.5066C53.0938 52.5067 53.0917 52.5075 53.0874 52.5088C53.0831 52.5102 53.0757 52.5122 53.0647 52.5143C53.0428 52.5185 53.0046 52.5235 52.9463 52.5235L52.9463 56.5235ZM56.1043 55.1419C56.9504 54.1998 57.2607 53.0187 57.2607 51.8428L53.2607 51.8428C53.2607 52.327 53.1414 52.4546 53.1281 52.4694L56.1043 55.1419ZM57.2607 51.8428L57.2607 50.7735L53.2607 50.7735L53.2607 51.8428L57.2607 51.8428ZM57.2607 50.7735C57.2607 49.624 56.9341 48.5128 56.1599 47.5946L53.1018 50.173C53.1675 50.2509 53.2607 50.3995 53.2607 50.7735L57.2607 50.7735ZM56.1599 47.5946C55.3155 46.5931 54.1565 46.1367 52.917 46.1367L52.917 50.1367C52.9829 50.1367 53.0268 50.1424 53.0526 50.1474C53.0778 50.1523 53.0881 50.1568 53.0883 50.1569C53.0887 50.1571 53.088 50.1568 53.0866 50.156C53.0852 50.1552 53.0842 50.1544 53.0838 50.1541C53.0823 50.153 53.0886 50.1573 53.1018 50.173L56.1599 47.5946ZM52.917 46.1367C51.6775 46.1367 50.5185 46.5931 49.6741 47.5946L52.7322 50.173C52.7454 50.1573 52.7517 50.153 52.7502 50.1541C52.7498 50.1544 52.7488 50.1552 52.7474 50.156C52.746 50.1568 52.7453 50.1571 52.7457 50.1569C52.7459 50.1568 52.7562 50.1523 52.7814 50.1474C52.8072 50.1424 52.8511 50.1367 52.917 50.1367L52.917 46.1367ZM49.6741 47.5946C48.8849 48.5307 48.5732 49.6715 48.5732 50.8321L52.5732 50.8321C52.5732 50.3911 52.6816 50.233 52.7322 50.173L49.6741 47.5946ZM48.5732 50.8321L48.5732 51.9014L52.5732 51.9014L52.5732 50.8321L48.5732 50.8321ZM60.9375 62.7705C60.9375 61.9546 61.1773 61.4303 61.576 61.0268L58.7307 58.2154C57.5082 59.4526 56.9375 61.0279 56.9375 62.7705L60.9375 62.7705ZM61.5759 61.0269C61.9824 60.6156 62.5013 60.376 63.3027 60.376L63.3027 56.376C61.5456 56.376 59.9648 56.9665 58.7308 58.2153L61.5759 61.0269ZM63.3027 60.376C64.1114 60.376 64.633 60.6157 65.0379 61.0207L67.8664 58.1923C66.6307 56.9566 65.0526 56.376 63.3027 56.376L63.3027 60.376ZM65.0379 61.0207C65.4195 61.4023 65.6826 61.9488 65.6826 62.8731L69.6826 62.8731C69.6826 61.0826 69.1254 59.4513 67.8664 58.1923L65.0379 61.0207ZM65.6826 62.8731L65.6826 63.9131L69.6826 63.9131L69.6826 62.8731L65.6826 62.8731ZM65.6826 63.9131C65.6826 64.7217 65.4426 65.2534 65.0296 65.6714L67.8747 68.483C69.1023 67.2408 69.6826 65.6632 69.6826 63.9131L65.6826 63.9131ZM65.0295 65.6715C64.6344 66.0713 64.1263 66.3076 63.332 66.3076L63.332 70.3076C65.0768 70.3076 66.6488 69.7237 67.8748 68.4829L65.0295 65.6715ZM63.332 66.3076C62.5307 66.3076 61.9995 66.0706 61.5799 65.6609L58.7853 68.5228C60.0259 69.7342 61.5943 70.3076 63.332 70.3076L63.332 66.3076ZM61.5884 65.6693C61.2008 65.2862 60.9375 64.7425 60.9375 63.8252L56.9375 63.8252C56.9375 65.6228 57.5042 67.2568 58.7768 68.5144L61.5884 65.6693ZM60.9375 63.8252L60.9375 62.7705L56.9375 62.7705L56.9375 63.8252L60.9375 63.8252ZM58.959 63.9131C58.959 65.0768 59.2934 66.2015 60.0892 67.1239L63.1178 64.5109C63.0542 64.4372 62.959 64.2924 62.959 63.9131L58.959 63.9131ZM60.1021 67.1387C60.9562 68.1093 62.106 68.5498 63.332 68.5498L63.332 64.5498C63.1977 64.5498 63.1442 64.5278 63.1382 64.5252C63.1338 64.5234 63.1322 64.5223 63.1305 64.5211C63.1286 64.5197 63.1199 64.5131 63.1049 64.4962L60.1021 67.1387ZM63.332 68.5498C64.5435 68.5498 65.6779 68.1107 66.5199 67.1512L63.5133 64.5129C63.5066 64.5206 63.5016 64.5255 63.4987 64.5281C63.4972 64.5295 63.4962 64.5304 63.4955 64.5309C63.4949 64.5315 63.4945 64.5317 63.4945 64.5317C63.4944 64.5318 63.4946 64.5317 63.4949 64.5314C63.4953 64.5312 63.4957 64.531 63.4961 64.5307C63.497 64.5302 63.4973 64.5301 63.4965 64.5305C63.4956 64.5308 63.4853 64.5352 63.461 64.5398C63.4362 64.5445 63.3944 64.5498 63.332 64.5498L63.332 68.5498ZM66.533 67.1361C67.3462 66.1906 67.6465 65.0218 67.6465 63.8545L63.6465 63.8545C63.6465 64.3474 63.5269 64.497 63.5002 64.528L66.533 67.1361ZM67.6465 63.8545L67.6465 62.7705L63.6465 62.7705L63.6465 63.8545L67.6465 63.8545ZM67.6465 62.7705C67.6465 61.6081 67.3123 60.4788 66.5034 59.5596L63.5005 62.2021C63.551 62.2595 63.6465 62.39 63.6465 62.7705L67.6465 62.7705ZM66.5183 59.5768C65.675 58.5962 64.5283 58.1485 63.3027 58.1485L63.3027 62.1485C63.3669 62.1485 63.4097 62.154 63.435 62.1588C63.4597 62.1635 63.47 62.168 63.4705 62.1682C63.4707 62.1683 63.4686 62.1672 63.4672 62.1662C63.466 62.1653 63.4725 62.1697 63.4856 62.185L66.5183 59.5768ZM63.3027 58.1485C62.078 58.1485 60.9588 58.6075 60.1169 59.543L63.0901 62.2188C63.112 62.1945 63.1271 62.1824 63.1342 62.1772C63.141 62.1723 63.1455 62.17 63.1496 62.1682C63.1535 62.1665 63.1945 62.1485 63.3027 62.1485L63.3027 58.1485ZM60.1154 59.5446C59.2731 60.4827 58.959 61.6558 58.959 62.8291L62.959 62.8291C62.959 62.3618 63.0746 62.2361 63.0916 62.2171L60.1154 59.5446ZM58.959 62.8291L58.959 63.9131L62.959 63.9131L62.959 62.8291L58.959 62.8291ZM54.6259 64.6954L53.0878 63.7286L50.9591 67.1152L52.4972 68.082L54.6259 64.6954ZM53.7196 66.4816L64.1346 49.8117L60.7423 47.6923L50.3273 64.3622L53.7196 66.4816ZM61.3741 50.4453L62.9122 51.4121L65.0409 48.0255L63.5028 47.0587L61.3741 50.4453ZM62.2804 48.6591L51.8654 65.329L55.2577 67.4484L65.6727 50.7785L62.2804 48.6591Z" fill="#0F0F0F"/>
<rect width="88.4441" height="89.2145" rx="20" transform="matrix(0.94415 -0.329516 0.35487 0.934916 0.647781 29.6005)" stroke="#0F0F0F" stroke-width="2"/>
</g>
<defs>
<filter id="filter0_d" x="-3.35222" y="0.456741" width="123.164" height="120.552" filterUnits="userSpaceOnUse" color-interpolation-filters="sRGB">
<feFlood flood-opacity="0" result="BackgroundImageFix"/>
<feColorMatrix in="SourceAlpha" type="matrix" values="0 0 0 0 0 0 0 0 0 0 0 0 0 0 0 0 0 0 127 0"/>
<feOffset dy="4"/>
<feGaussianBlur stdDeviation="2"/>
<feColorMatrix type="matrix" values="0 0 0 0 0 0 0 0 0 0 0 0 0 0 0 0 0 0 0.25 0"/>
<feBlend mode="normal" in2="BackgroundImageFix" result="effect1_dropShadow"/>
<feBlend mode="normal" in="SourceGraphic" in2="effect1_dropShadow" result="shape"/>
</filter>
</defs>
</svg>
