<svg width="115" height="117" viewBox="0 0 115 117" fill="none" xmlns="http://www.w3.org/2000/svg">
<g filter="url(#filter0_d)">
<g clip-path="url(#clip0)">
<rect width="87.4614" height="89.2145" rx="20" transform="matrix(0.94415 -0.329516 0.35487 0.934916 0.13063 29.4385)" fill="#4341A4"/>
<path d="M56.6543 55.5791C56.6543 55.1104 56.791 54.7197 57.0645 54.4072C57.3477 54.0947 57.7676 53.9385 58.3242 53.9385C58.8809 53.9385 59.3008 54.0947 59.584 54.4072C59.877 54.7197 60.0234 55.1104 60.0234 55.5791C60.0234 56.0283 59.877 56.4043 59.584 56.707C59.3008 57.0098 58.8809 57.1611 58.3242 57.1611C57.7676 57.1611 57.3477 57.0098 57.0645 56.707C56.791 56.4043 56.6543 56.0283 56.6543 55.5791Z" fill="#FFFBFB"/>
<path d="M57.0645 54.4072L55.5825 53.0642L55.5708 53.0771L55.5593 53.0902L57.0645 54.4072ZM59.584 54.4072L58.102 55.7503L58.1134 55.7628L58.1249 55.7751L59.584 54.4072ZM59.584 56.707L58.1468 55.3162L58.135 55.3284L58.1234 55.3407L59.584 56.707ZM57.0645 56.707L55.5802 58.0476L55.592 58.0606L55.6039 58.0733L57.0645 56.707ZM58.6543 55.5791C58.6543 55.5402 58.6597 55.5521 58.6446 55.5953C58.6373 55.6161 58.6267 55.6397 58.6126 55.664C58.5984 55.6882 58.5834 55.7085 58.5696 55.7242L55.5593 53.0902C54.9255 53.8146 54.6543 54.6926 54.6543 55.5791L58.6543 55.5791ZM58.5464 55.7503C58.5065 55.7943 58.4607 55.8337 58.4119 55.8662C58.3636 55.8985 58.3206 55.9185 58.2893 55.9301C58.2293 55.9524 58.2285 55.9385 58.3242 55.9385L58.3242 51.9385C57.3932 51.9385 56.3561 52.2106 55.5825 53.0642L58.5464 55.7503ZM58.3242 55.9385C58.42 55.9385 58.4191 55.9524 58.3592 55.9301C58.3279 55.9185 58.2849 55.8985 58.2365 55.8662C58.1878 55.8337 58.1419 55.7943 58.102 55.7503L61.066 53.0642C60.2924 52.2106 59.2552 51.9385 58.3242 51.9385L58.3242 55.9385ZM58.1249 55.7751C58.0959 55.7442 58.0628 55.6952 58.0409 55.6368C58.0202 55.5816 58.0234 55.5551 58.0234 55.5791L62.0234 55.5791C62.0234 54.6544 61.7177 53.7589 61.0431 53.0393L58.1249 55.7751ZM58.0234 55.5791C58.0234 55.5834 58.0234 55.5402 58.05 55.4719C58.0775 55.4013 58.1167 55.3473 58.1468 55.3162L61.0212 58.0979C61.7007 57.3957 62.0234 56.5094 62.0234 55.5791L58.0234 55.5791ZM58.1234 55.3407C58.1656 55.2957 58.2126 55.2568 58.2609 55.2256C58.3087 55.1948 58.35 55.1763 58.3784 55.1661C58.4322 55.1467 58.4262 55.1611 58.3242 55.1611L58.3242 59.1611C59.2368 59.1611 60.2665 58.905 61.0445 58.0733L58.1234 55.3407ZM58.3242 55.1611C58.2223 55.1611 58.2162 55.1467 58.27 55.1661C58.2984 55.1763 58.3397 55.1948 58.3875 55.2256C58.4359 55.2568 58.4829 55.2957 58.525 55.3407L55.6039 58.0733C56.3819 58.905 57.4116 59.1611 58.3242 59.1611L58.3242 55.1611ZM58.5487 55.3665C58.5814 55.4027 58.6148 55.4552 58.6364 55.5145C58.6569 55.5708 58.6543 55.599 58.6543 55.5791L54.6543 55.5791C54.6543 56.4694 54.9402 57.339 55.5802 58.0476L58.5487 55.3665Z" fill="#0F0F0F"/>
</g>
<rect width="87.4614" height="89.2145" rx="20" transform="matrix(0.94415 -0.329516 0.35487 0.934916 0.13063 29.4385)" stroke="#0F0F0F" stroke-width="2"/>
</g>
<defs>
<filter id="filter0_d" x="-3.86937" y="0.618637" width="122.236" height="120.228" filterUnits="userSpaceOnUse" color-interpolation-filters="sRGB">
<feFlood flood-opacity="0" result="BackgroundImageFix"/>
<feColorMatrix in="SourceAlpha" type="matrix" values="0 0 0 0 0 0 0 0 0 0 0 0 0 0 0 0 0 0 127 0"/>
<feOffset dy="4"/>
<feGaussianBlur stdDeviation="2"/>
<feColorMatrix type="matrix" values="0 0 0 0 0 0 0 0 0 0 0 0 0 0 0 0 0 0 0.25 0"/>
<feBlend mode="normal" in2="BackgroundImageFix" result="effect1_dropShadow"/>
<feBlend mode="normal" in="SourceGraphic" in2="effect1_dropShadow" result="shape"/>
</filter>
<clipPath id="clip0">
<rect width="87.4614" height="89.2145" rx="20" transform="matrix(0.94415 -0.329516 0.35487 0.934916 0.13063 29.4385)" fill="white"/>
</clipPath>
</defs>
</svg>
