<svg width="93" height="102" viewBox="0 0 93 102" fill="none" xmlns="http://www.w3.org/2000/svg">
<g filter="url(#filter0_i)">
<g clip-path="url(#clip0)">
<path d="M0 0H93V92C93 97.5229 88.5229 102 83 102H10C4.47715 102 0 97.5229 0 92V0Z" fill="#54C574"/>
<path d="M52.5898 52.0918H38.293V47.668H52.5898V52.0918Z" fill="#F8F2F2"/>
<path d="M52.5898 52.0918V54.0918H54.5898V52.0918H52.5898ZM38.293 52.0918H36.293V54.0918H38.293V52.0918ZM38.293 47.668V45.668H36.293V47.668H38.293ZM52.5898 47.668H54.5898V45.668H52.5898V47.668ZM52.5898 50.0918H38.293V54.0918H52.5898V50.0918ZM40.293 52.0918V47.668H36.293V52.0918H40.293ZM38.293 49.668H52.5898V45.668H38.293V49.668ZM50.5898 47.668V52.0918H54.5898V47.668H50.5898Z" fill="#0F0F0F"/>
</g>
<path d="M1 1H92V92C92 96.9706 87.9706 101 83 101H10C5.02944 101 1 96.9706 1 92V1Z" stroke="#0F0F0F" stroke-width="2"/>
</g>
<defs>
<filter id="filter0_i" x="0" y="0" width="93" height="105" filterUnits="userSpaceOnUse" color-interpolation-filters="sRGB">
<feFlood flood-opacity="0" result="BackgroundImageFix"/>
<feBlend mode="normal" in="SourceGraphic" in2="BackgroundImageFix" result="shape"/>
<feColorMatrix in="SourceAlpha" type="matrix" values="0 0 0 0 0 0 0 0 0 0 0 0 0 0 0 0 0 0 127 0" result="hardAlpha"/>
<feMorphology radius="3" operator="erode" in="SourceAlpha" result="effect1_innerShadow"/>
<feOffset dy="3"/>
<feGaussianBlur stdDeviation="4.5"/>
<feComposite in2="hardAlpha" operator="arithmetic" k2="-1" k3="1"/>
<feColorMatrix type="matrix" values="0 0 0 0 0.2 0 0 0 0 0.2 0 0 0 0 0.2 0 0 0 0.35 0"/>
<feBlend mode="normal" in2="shape" result="effect1_innerShadow"/>
</filter>
<clipPath id="clip0">
<path d="M0 0H93V92C93 97.5229 88.5229 102 83 102H10C4.47715 102 0 97.5229 0 92V0Z" fill="white"/>
</clipPath>
</defs>
</svg>
