<svg width="93" height="100" viewBox="0 0 93 100" fill="none" xmlns="http://www.w3.org/2000/svg">
<g filter="url(#filter0_i)">
<g clip-path="url(#clip0)">
<path d="M0 0H93V90C93 95.5228 88.5229 100 83 100H10C4.47715 100 0 95.5229 0 90V0Z" fill="#54C574"/>
<path d="M50.6074 46.1191H62.502V51.2461H50.6074V64.7227H45.1582V51.2461H33.2637V46.1191H45.1582V33.668H50.6074V46.1191Z" fill="white"/>
<path d="M50.6074 46.1191H48.6074V48.1191H50.6074V46.1191ZM62.502 46.1191H64.502V44.1191H62.502V46.1191ZM62.502 51.2461V53.2461H64.502V51.2461H62.502ZM50.6074 51.2461V49.2461H48.6074V51.2461H50.6074ZM50.6074 64.7227V66.7227H52.6074V64.7227H50.6074ZM45.1582 64.7227H43.1582V66.7227H45.1582V64.7227ZM45.1582 51.2461H47.1582V49.2461H45.1582V51.2461ZM33.2637 51.2461H31.2637V53.2461H33.2637V51.2461ZM33.2637 46.1191V44.1191H31.2637V46.1191H33.2637ZM45.1582 46.1191V48.1191H47.1582V46.1191H45.1582ZM45.1582 33.668V31.668H43.1582V33.668H45.1582ZM50.6074 33.668H52.6074V31.668H50.6074V33.668ZM50.6074 48.1191H62.502V44.1191H50.6074V48.1191ZM60.502 46.1191V51.2461H64.502V46.1191H60.502ZM62.502 49.2461H50.6074V53.2461H62.502V49.2461ZM48.6074 51.2461V64.7227H52.6074V51.2461H48.6074ZM50.6074 62.7227H45.1582V66.7227H50.6074V62.7227ZM47.1582 64.7227V51.2461H43.1582V64.7227H47.1582ZM45.1582 49.2461H33.2637V53.2461H45.1582V49.2461ZM35.2637 51.2461V46.1191H31.2637V51.2461H35.2637ZM33.2637 48.1191H45.1582V44.1191H33.2637V48.1191ZM47.1582 46.1191V33.668H43.1582V46.1191H47.1582ZM45.1582 35.668H50.6074V31.668H45.1582V35.668ZM48.6074 33.668V46.1191H52.6074V33.668H48.6074Z" fill="#0F0F0F"/>
</g>
<path d="M1 1H92V90C92 94.9706 87.9706 99 83 99H10C5.02944 99 1 94.9706 1 90V1Z" stroke="#0F0F0F" stroke-width="2"/>
</g>
<defs>
<filter id="filter0_i" x="0" y="0" width="93" height="103" filterUnits="userSpaceOnUse" color-interpolation-filters="sRGB">
<feFlood flood-opacity="0" result="BackgroundImageFix"/>
<feBlend mode="normal" in="SourceGraphic" in2="BackgroundImageFix" result="shape"/>
<feColorMatrix in="SourceAlpha" type="matrix" values="0 0 0 0 0 0 0 0 0 0 0 0 0 0 0 0 0 0 127 0" result="hardAlpha"/>
<feMorphology radius="3" operator="erode" in="SourceAlpha" result="effect1_innerShadow"/>
<feOffset dy="3"/>
<feGaussianBlur stdDeviation="4.5"/>
<feComposite in2="hardAlpha" operator="arithmetic" k2="-1" k3="1"/>
<feColorMatrix type="matrix" values="0 0 0 0 0.2 0 0 0 0 0.2 0 0 0 0 0.2 0 0 0 0.35 0"/>
<feBlend mode="normal" in2="shape" result="effect1_innerShadow"/>
</filter>
<clipPath id="clip0">
<path d="M0 0H93V90C93 95.5228 88.5229 100 83 100H10C4.47715 100 0 95.5229 0 90V0Z" fill="white"/>
</clipPath>
</defs>
</svg>
